<svg width="24" height="25" viewBox="0 0 24 25" fill="none" xmlns="http://www.w3.org/2000/svg">
<path d="M12 2.75C10.0716 2.75 8.18657 3.32183 6.58319 4.39317C4.97982 5.46451 3.73013 6.98726 2.99218 8.76884C2.25422 10.5504 2.06114 12.5108 2.43735 14.4021C2.81355 16.2934 3.74215 18.0307 5.10571 19.3943C6.46928 20.7579 8.20656 21.6865 10.0979 22.0627C11.9892 22.4389 13.9496 22.2458 15.7312 21.5078C17.5127 20.7699 19.0355 19.5202 20.1068 17.9168C21.1782 16.3134 21.75 14.4284 21.75 12.5C21.7473 9.91498 20.7192 7.43661 18.8913 5.60872C17.0634 3.78084 14.585 2.75273 12 2.75ZM12.75 20.7153V17.75C12.75 17.5511 12.671 17.3603 12.5303 17.2197C12.3897 17.079 12.1989 17 12 17C11.8011 17 11.6103 17.079 11.4697 17.2197C11.329 17.3603 11.25 17.5511 11.25 17.75V20.7153C9.3301 20.5376 7.53283 19.6939 6.16945 18.3306C4.80606 16.9672 3.96244 15.1699 3.78469 13.25H6.75C6.94892 13.25 7.13968 13.171 7.28033 13.0303C7.42099 12.8897 7.5 12.6989 7.5 12.5C7.5 12.3011 7.42099 12.1103 7.28033 11.9697C7.13968 11.829 6.94892 11.75 6.75 11.75H3.78469C3.96244 9.8301 4.80606 8.03282 6.16945 6.66944C7.53283 5.30606 9.3301 4.46244 11.25 4.28469V7.25C11.25 7.44891 11.329 7.63968 11.4697 7.78033C11.6103 7.92098 11.8011 8 12 8C12.1989 8 12.3897 7.92098 12.5303 7.78033C12.671 7.63968 12.75 7.44891 12.75 7.25V4.28469C14.6699 4.46244 16.4672 5.30606 17.8306 6.66944C19.1939 8.03282 20.0376 9.8301 20.2153 11.75H17.25C17.0511 11.75 16.8603 11.829 16.7197 11.9697C16.579 12.1103 16.5 12.3011 16.5 12.5C16.5 12.6989 16.579 12.8897 16.7197 13.0303C16.8603 13.171 17.0511 13.25 17.25 13.25H20.2153C20.0376 15.1699 19.1939 16.9672 17.8306 18.3306C16.4672 19.6939 14.6699 20.5376 12.75 20.7153Z" fill="#1B1D1F"/>
</svg>
