<svg width="25" height="24" viewBox="0 0 25 24" fill="none" xmlns="http://www.w3.org/2000/svg">
<path d="M21.8113 2.68876C21.6226 2.50025 21.3872 2.36544 21.1291 2.29821C20.8711 2.23098 20.5997 2.23376 20.3431 2.30626H20.3291L2.33469 7.76625C2.04177 7.85049 1.78147 8.02196 1.58844 8.25784C1.3954 8.49371 1.27881 8.78278 1.25417 9.08658C1.22953 9.39037 1.29803 9.69445 1.45053 9.95835C1.60303 10.2222 1.8323 10.4334 2.10781 10.5638L10.1347 14.3653L13.9363 22.3922C14.0563 22.6492 14.2473 22.8666 14.4869 23.0186C14.7264 23.1706 15.0044 23.2509 15.2881 23.25C15.3313 23.25 15.3744 23.2481 15.4175 23.2444C15.7202 23.2199 16.0082 23.1034 16.2428 22.9105C16.4774 22.7176 16.6474 22.4576 16.73 22.1653L22.1863 4.17094C22.1863 4.16626 22.1863 4.16157 22.1863 4.15688C22.2597 3.90091 22.2637 3.63 22.1978 3.37199C22.1319 3.11397 21.9985 2.87815 21.8113 2.68876ZM15.2966 21.7359L15.2919 21.7491L11.6019 13.9594L16.0306 9.52969C16.1653 9.3879 16.2393 9.19908 16.2368 9.00351C16.2343 8.80794 16.1555 8.62108 16.0172 8.48278C15.8789 8.34448 15.6921 8.26568 15.4965 8.26317C15.3009 8.26067 15.1121 8.33466 14.9703 8.46938L10.5406 12.8981L2.75 9.20813H2.76313L20.75 3.75001L15.2966 21.7359Z" fill="#A0A4A8"/>
</svg>
