<svg width="25" height="24" viewBox="0 0 25 24" fill="none" xmlns="http://www.w3.org/2000/svg">
<path d="M13.625 12C13.625 12.2225 13.559 12.44 13.4354 12.625C13.3118 12.81 13.1361 12.9542 12.9305 13.0394C12.725 13.1245 12.4988 13.1468 12.2805 13.1034C12.0623 13.06 11.8618 12.9528 11.7045 12.7955C11.5472 12.6382 11.44 12.4377 11.3966 12.2195C11.3532 12.0012 11.3755 11.775 11.4606 11.5695C11.5458 11.3639 11.69 11.1882 11.875 11.0646C12.06 10.941 12.2775 10.875 12.5 10.875C12.7984 10.875 13.0845 10.9935 13.2955 11.2045C13.5065 11.4155 13.625 11.7016 13.625 12ZM8.375 10.875C8.1525 10.875 7.93499 10.941 7.74998 11.0646C7.56498 11.1882 7.42078 11.3639 7.33564 11.5695C7.25049 11.775 7.22821 12.0012 7.27162 12.2195C7.31502 12.4377 7.42217 12.6382 7.5795 12.7955C7.73684 12.9528 7.93729 13.06 8.15552 13.1034C8.37375 13.1468 8.59995 13.1245 8.80552 13.0394C9.01109 12.9542 9.18679 12.81 9.3104 12.625C9.43402 12.44 9.5 12.2225 9.5 12C9.5 11.7016 9.38147 11.4155 9.1705 11.2045C8.95952 10.9935 8.67337 10.875 8.375 10.875ZM16.625 10.875C16.4025 10.875 16.185 10.941 16 11.0646C15.815 11.1882 15.6708 11.3639 15.5856 11.5695C15.5005 11.775 15.4782 12.0012 15.5216 12.2195C15.565 12.4377 15.6722 12.6382 15.8295 12.7955C15.9868 12.9528 16.1873 13.06 16.4055 13.1034C16.6238 13.1468 16.85 13.1245 17.0555 13.0394C17.2611 12.9542 17.4368 12.81 17.5604 12.625C17.684 12.44 17.75 12.2225 17.75 12C17.75 11.7016 17.6315 11.4155 17.4205 11.2045C17.2095 10.9935 16.9234 10.875 16.625 10.875ZM22.25 12C22.2504 13.6833 21.8149 15.338 20.986 16.8031C20.1572 18.2682 18.9631 19.4938 17.52 20.3605C16.077 21.2272 14.4341 21.7055 12.7514 21.7489C11.0686 21.7923 9.4033 21.3993 7.9175 20.6081L4.72531 21.6722C4.46102 21.7603 4.1774 21.7731 3.90624 21.7091C3.63509 21.6451 3.38711 21.5069 3.19011 21.3099C2.99311 21.1129 2.85486 20.8649 2.79087 20.5938C2.72688 20.3226 2.73967 20.039 2.82781 19.7747L3.89187 16.5825C3.19639 15.2749 2.80793 13.826 2.756 12.3459C2.70406 10.8658 2.99001 9.39325 3.59213 8.04012C4.19425 6.687 5.09672 5.48882 6.23105 4.53655C7.36537 3.58428 8.70173 2.90295 10.1387 2.54426C11.5756 2.18557 13.0754 2.15895 14.5242 2.46644C15.973 2.77392 17.3327 3.40742 18.5001 4.31885C19.6675 5.23027 20.6119 6.39567 21.2616 7.72659C21.9114 9.0575 22.2494 10.5189 22.25 12ZM20.75 12C20.7496 10.7345 20.4582 9.48603 19.8981 8.3512C19.338 7.21637 18.5244 6.22559 17.5201 5.45553C16.5159 4.68547 15.3479 4.15675 14.1067 3.9103C12.8654 3.66384 11.584 3.70625 10.3618 4.03425C9.13951 4.36224 8.00909 4.96702 7.05796 5.8018C6.10682 6.63659 5.36049 7.67899 4.87668 8.84837C4.39288 10.0177 4.18458 11.2828 4.2679 12.5455C4.35122 13.8083 4.72393 15.035 5.35719 16.1306C5.41034 16.2226 5.44334 16.3248 5.454 16.4305C5.46467 16.5362 5.45276 16.643 5.41906 16.7437L4.25 20.25L7.75625 19.0809C7.83262 19.0549 7.91275 19.0416 7.99344 19.0416C8.12516 19.0418 8.2545 19.0767 8.36844 19.1428C9.62263 19.8685 11.0458 20.251 12.4948 20.2519C13.9438 20.2528 15.3674 19.8721 16.6225 19.148C17.8776 18.424 18.9199 17.3821 19.6445 16.1273C20.369 14.8725 20.7503 13.449 20.75 12Z" fill="#A0A4A8"/>
</svg>
