<svg width="80" height="24" viewBox="0 0 80 24" fill="none" xmlns="http://www.w3.org/2000/svg">
<path fill-rule="evenodd" clip-rule="evenodd" d="M10.6991 2.53877C6.19228 2.53877 2.53877 6.19228 2.53877 10.6991C2.53877 12.9742 3.46817 15.03 4.97122 16.5114C5.47053 17.0035 5.47636 17.8072 4.98425 18.3065C4.49213 18.8058 3.68843 18.8116 3.18911 18.3195C1.22187 16.3806 0 13.6814 0 10.6991C0 4.79015 4.79015 0 10.6991 0C16.6081 0 21.3982 4.79015 21.3982 10.6991C21.3982 15.7231 17.9366 19.9355 13.27 21.087C12.5893 21.255 11.9014 20.8394 11.7334 20.1587C11.5655 19.4781 11.9811 18.7901 12.6618 18.6222C16.2212 17.7438 18.8594 14.528 18.8594 10.6991C18.8594 6.19228 15.2059 2.53877 10.6991 2.53877Z" fill="#474C51"/>
<path fill-rule="evenodd" clip-rule="evenodd" d="M10.6991 11.6055C11.4002 11.6055 11.9685 12.1738 11.9685 12.8749C11.9685 18.7838 7.17834 23.574 1.26938 23.574C0.568323 23.574 0 23.0056 0 22.3046C0 21.6035 0.568323 21.0352 1.26938 21.0352C5.77621 21.0352 9.42972 17.3817 9.42972 12.8749C9.42972 12.1738 9.99804 11.6055 10.6991 11.6055Z" fill="#474C51"/>
<path d="M26.3565 18.5329C26.562 18.5329 26.7857 18.5148 27.0275 18.4785C27.2814 18.4302 27.4687 18.3697 27.5896 18.2972V16.8465L26.284 16.9553C25.9455 16.9795 25.6674 17.052 25.4498 17.1729C25.2322 17.2938 25.1234 17.4751 25.1234 17.7169C25.1234 17.9587 25.2141 18.1582 25.3954 18.3153C25.5888 18.4604 25.9092 18.5329 26.3565 18.5329ZM26.2114 11.4062C26.8643 11.4062 27.4567 11.4727 27.9886 11.6057C28.5326 11.7387 28.992 11.9442 29.3668 12.2223C29.7536 12.4883 30.0498 12.8328 30.2553 13.2559C30.4609 13.667 30.5636 14.1566 30.5636 14.7248V18.7868C30.5636 19.1011 30.473 19.3611 30.2916 19.5666C30.1224 19.76 29.9168 19.9293 29.6751 20.0743C28.8892 20.5458 27.7831 20.7816 26.3565 20.7816C25.7158 20.7816 25.1355 20.7211 24.6156 20.6002C24.1079 20.4793 23.6666 20.298 23.2919 20.0562C22.9292 19.8144 22.6451 19.5061 22.4396 19.1314C22.2461 18.7566 22.1494 18.3214 22.1494 17.8257C22.1494 16.9915 22.3972 16.3508 22.8929 15.9035C23.3886 15.4562 24.1563 15.1781 25.1959 15.0693L27.5715 14.8155V14.6885C27.5715 14.3379 27.4143 14.0901 27.1 13.945C26.7978 13.7879 26.3565 13.7093 25.7762 13.7093C25.3168 13.7093 24.8695 13.7576 24.4343 13.8544C23.9991 13.9511 23.6062 14.072 23.2556 14.217C23.0984 14.1082 22.9654 13.945 22.8566 13.7274C22.7478 13.4977 22.6934 13.262 22.6934 13.0202C22.6934 12.7059 22.766 12.458 22.911 12.2767C23.0682 12.0833 23.304 11.92 23.6183 11.7871C23.9689 11.6541 24.3799 11.5574 24.8514 11.4969C25.335 11.4365 25.7883 11.4062 26.2114 11.4062Z" fill="#474C51"/>
<path d="M37.3477 20.2194C37.1785 20.3645 36.9488 20.4793 36.6587 20.564C36.3685 20.6607 36.024 20.709 35.625 20.709C35.1293 20.709 34.7002 20.6365 34.3375 20.4914C33.9748 20.3584 33.733 20.165 33.6121 19.9111C33.4791 19.621 33.322 19.1616 33.1406 18.5329C32.9714 17.9043 32.8021 17.2152 32.6329 16.4657C32.4636 15.7161 32.3004 14.9545 32.1433 14.1808C31.9982 13.407 31.8833 12.724 31.7987 12.1316C31.968 11.9624 32.1916 11.8173 32.4697 11.6964C32.7598 11.5634 33.0742 11.4969 33.4127 11.4969C33.8358 11.4969 34.1803 11.5936 34.4463 11.7871C34.7244 11.9684 34.8936 12.2888 34.9541 12.7482C35.0749 13.667 35.1777 14.4286 35.2623 15.0331C35.347 15.6254 35.4134 16.1151 35.4618 16.5019C35.5223 16.8767 35.5646 17.1668 35.5887 17.3724C35.625 17.5658 35.6552 17.723 35.6794 17.8438H35.752C35.7882 17.6504 35.8487 17.3724 35.9333 17.0097C36.03 16.6349 36.1388 16.2118 36.2597 15.7403C36.3806 15.2688 36.5075 14.7611 36.6405 14.217C36.7735 13.6609 36.9065 13.1109 37.0395 12.5668C37.2813 12.4338 37.517 12.3311 37.7467 12.2586C37.9885 12.186 38.2847 12.1497 38.6353 12.1497C39.0584 12.1497 39.4211 12.2162 39.7233 12.3492C40.0255 12.4822 40.219 12.6877 40.3036 12.9658C40.4487 13.4977 40.5877 14.0176 40.7207 14.5253C40.8537 15.021 40.9746 15.4864 41.0834 15.9216C41.1922 16.3448 41.2889 16.7256 41.3735 17.0641C41.4581 17.3905 41.5186 17.6504 41.5549 17.8438H41.6455C41.7785 16.913 41.9054 15.9458 42.0263 14.9424C42.1593 13.939 42.2802 12.9174 42.389 11.8777C42.6066 11.7448 42.8363 11.648 43.0781 11.5876C43.3199 11.5271 43.5617 11.4969 43.8035 11.4969C44.2266 11.4969 44.5772 11.5876 44.8553 11.7689C45.1333 11.9503 45.2723 12.2646 45.2723 12.7119C45.2723 12.9053 45.2421 13.1955 45.1817 13.5823C45.1212 13.9692 45.0426 14.4044 44.9459 14.888C44.8492 15.3716 44.7344 15.8793 44.6014 16.4113C44.4805 16.9432 44.3535 17.457 44.2206 17.9527C44.0997 18.4483 43.9788 18.8956 43.8579 19.2946C43.7491 19.6935 43.6524 20.0018 43.5677 20.2194C43.3985 20.3645 43.1386 20.4793 42.788 20.564C42.4374 20.6607 42.0626 20.709 41.6637 20.709C40.6482 20.709 40.0497 20.4552 39.8684 19.9474C39.7958 19.7298 39.7052 19.4578 39.5964 19.1314C39.4876 18.7929 39.3727 18.4241 39.2518 18.0252C39.1309 17.6262 39.0161 17.2152 38.9073 16.7921C38.7985 16.3569 38.7078 15.9398 38.6353 15.5408C38.5506 15.9639 38.4479 16.4052 38.327 16.8646C38.2061 17.3119 38.0792 17.7532 37.9462 18.1884C37.8253 18.6115 37.7104 19.0044 37.6016 19.3671C37.4928 19.7177 37.4082 20.0018 37.3477 20.2194Z" fill="#474C51"/>
<path d="M50.7128 11.4062C51.4382 11.4062 52.1092 11.503 52.7257 11.6964C53.3544 11.8777 53.8924 12.1618 54.3397 12.5487C54.787 12.9356 55.1376 13.4252 55.3914 14.0176C55.6453 14.5978 55.7723 15.293 55.7723 16.103C55.7723 16.8767 55.6634 17.5537 55.4458 18.134C55.2282 18.7143 54.9199 19.2039 54.521 19.6029C54.122 19.9897 53.6385 20.2799 53.0703 20.4733C52.5142 20.6667 51.8916 20.7634 51.2025 20.7634C50.6826 20.7634 50.199 20.6849 49.7517 20.5277V23.5379C49.6308 23.5742 49.4374 23.6105 49.1714 23.6468C48.9055 23.6951 48.6335 23.7193 48.3554 23.7193C48.0894 23.7193 47.8477 23.7012 47.6301 23.6649C47.4245 23.6286 47.2492 23.5561 47.1042 23.4473C46.9591 23.3385 46.8503 23.1874 46.7778 22.9939C46.7052 22.8126 46.6689 22.5708 46.6689 22.2686V13.5642C46.6689 13.2378 46.7354 12.9718 46.8684 12.7663C47.0135 12.5608 47.2069 12.3734 47.4487 12.2041C47.8235 11.9624 48.2889 11.7689 48.845 11.6239C49.4011 11.4788 50.0238 11.4062 50.7128 11.4062ZM50.7491 18.3335C51.9943 18.3335 52.6169 17.59 52.6169 16.103C52.6169 15.3293 52.4598 14.755 52.1454 14.3802C51.8432 14.0055 51.4019 13.8181 50.8216 13.8181C50.592 13.8181 50.3864 13.8483 50.2051 13.9088C50.0237 13.9571 49.8666 14.0176 49.7336 14.0901V18.0796C49.8787 18.1521 50.0358 18.2126 50.2051 18.2609C50.3743 18.3093 50.5557 18.3335 50.7491 18.3335Z" fill="#474C51"/>
<path d="M61.084 18.5329C61.2895 18.5329 61.5131 18.5148 61.7549 18.4785C62.0088 18.4302 62.1962 18.3697 62.3171 18.2972V16.8465L61.0114 16.9553C60.6729 16.9795 60.3949 17.052 60.1773 17.1729C59.9597 17.2938 59.8509 17.4751 59.8509 17.7169C59.8509 17.9587 59.9415 18.1582 60.1229 18.3153C60.3163 18.4604 60.6367 18.5329 61.084 18.5329ZM60.9389 11.4062C61.5917 11.4062 62.1841 11.4727 62.716 11.6057C63.2601 11.7387 63.7195 11.9442 64.0942 12.2223C64.4811 12.4883 64.7773 12.8328 64.9828 13.2559C65.1883 13.667 65.2911 14.1566 65.2911 14.7248V18.7868C65.2911 19.1011 65.2004 19.3611 65.0191 19.5666C64.8498 19.76 64.6443 19.9293 64.4025 20.0743C63.6167 20.5458 62.5105 20.7816 61.084 20.7816C60.4432 20.7816 59.8629 20.7211 59.3431 20.6002C58.8354 20.4793 58.3941 20.298 58.0193 20.0562C57.6566 19.8144 57.3725 19.5061 57.167 19.1314C56.9736 18.7566 56.8769 18.3214 56.8769 17.8257C56.8769 16.9915 57.1247 16.3508 57.6204 15.9035C58.116 15.4562 58.8837 15.1781 59.9234 15.0693L62.299 14.8155V14.6885C62.299 14.3379 62.1418 14.0901 61.8275 13.945C61.5252 13.7879 61.084 13.7093 60.5037 13.7093C60.0443 13.7093 59.597 13.7576 59.1618 13.8544C58.7265 13.9511 58.3336 14.072 57.983 14.217C57.8259 14.1082 57.6929 13.945 57.5841 13.7274C57.4753 13.4977 57.4209 13.262 57.4209 13.0202C57.4209 12.7059 57.4934 12.458 57.6385 12.2767C57.7957 12.0833 58.0314 11.92 58.3457 11.7871C58.6963 11.6541 59.1074 11.5574 59.5788 11.4969C60.0624 11.4365 60.5158 11.4062 60.9389 11.4062Z" fill="#474C51"/>
<path d="M72.0752 20.2194C71.906 20.3645 71.6763 20.4793 71.3861 20.564C71.096 20.6607 70.7514 20.709 70.3525 20.709C69.8568 20.709 69.4276 20.6365 69.065 20.4914C68.7023 20.3584 68.4605 20.165 68.3396 19.9111C68.2066 19.621 68.0494 19.1616 67.8681 18.5329C67.6988 17.9043 67.5296 17.2152 67.3603 16.4657C67.1911 15.7161 67.0279 14.9545 66.8707 14.1808C66.7257 13.407 66.6108 12.724 66.5262 12.1316C66.6954 11.9624 66.9191 11.8173 67.1971 11.6964C67.4873 11.5634 67.8016 11.4969 68.1401 11.4969C68.5632 11.4969 68.9078 11.5936 69.1738 11.7871C69.4518 11.9684 69.6211 12.2888 69.6815 12.7482C69.8024 13.667 69.9052 14.4286 69.9898 15.0331C70.0744 15.6254 70.1409 16.1151 70.1893 16.5019C70.2497 16.8767 70.292 17.1668 70.3162 17.3724C70.3525 17.5658 70.3827 17.723 70.4069 17.8438H70.4794C70.5157 17.6504 70.5761 17.3724 70.6608 17.0097C70.7575 16.6349 70.8663 16.2118 70.9872 15.7403C71.1081 15.2688 71.235 14.7611 71.368 14.217C71.501 13.6609 71.6339 13.1109 71.7669 12.5668C72.0087 12.4338 72.2445 12.3311 72.4742 12.2586C72.7159 12.186 73.0121 12.1497 73.3627 12.1497C73.7859 12.1497 74.1485 12.2162 74.4508 12.3492C74.753 12.4822 74.9464 12.6877 75.0311 12.9658C75.1761 13.4977 75.3152 14.0176 75.4481 14.5253C75.5811 15.021 75.702 15.4864 75.8108 15.9216C75.9196 16.3448 76.0163 16.7256 76.101 17.0641C76.1856 17.3905 76.246 17.6504 76.2823 17.8438H76.373C76.506 16.913 76.6329 15.9458 76.7538 14.9424C76.8868 13.939 77.0077 12.9174 77.1165 11.8777C77.3341 11.7448 77.5638 11.648 77.8056 11.5876C78.0474 11.5271 78.2892 11.4969 78.5309 11.4969C78.9541 11.4969 79.3047 11.5876 79.5827 11.7689C79.8608 11.9503 79.9998 12.2646 79.9998 12.7119C79.9998 12.9053 79.9696 13.1955 79.9091 13.5823C79.8487 13.9692 79.7701 14.4044 79.6734 14.888C79.5767 15.3716 79.4618 15.8793 79.3288 16.4113C79.2079 16.9432 79.081 17.457 78.948 17.9527C78.8271 18.4483 78.7062 18.8956 78.5853 19.2946C78.4765 19.6935 78.3798 20.0018 78.2952 20.2194C78.1259 20.3645 77.866 20.4793 77.5154 20.564C77.1648 20.6607 76.7901 20.709 76.3911 20.709C75.3756 20.709 74.7772 20.4552 74.5958 19.9474C74.5233 19.7298 74.4326 19.4578 74.3238 19.1314C74.215 18.7929 74.1002 18.4241 73.9793 18.0252C73.8584 17.6262 73.7435 17.2152 73.6347 16.7921C73.5259 16.3569 73.4353 15.9398 73.3627 15.5408C73.2781 15.9639 73.1753 16.4052 73.0544 16.8646C72.9336 17.3119 72.8066 17.7532 72.6736 18.1884C72.5527 18.6115 72.4379 19.0044 72.3291 19.3671C72.2203 19.7177 72.1357 20.0018 72.0752 20.2194Z" fill="#474C51"/>
</svg>
