<svg width="24" height="24" viewBox="0 0 24 24" fill="none" xmlns="http://www.w3.org/2000/svg">
<path d="M13.3125 12.0002C13.3125 12.2598 13.2355 12.5136 13.0913 12.7294C12.9471 12.9452 12.7421 13.1135 12.5023 13.2128C12.2624 13.3121 11.9985 13.3381 11.7439 13.2875C11.4893 13.2369 11.2555 13.1119 11.0719 12.9283C10.8884 12.7447 10.7634 12.5109 10.7127 12.2563C10.6621 12.0017 10.6881 11.7378 10.7874 11.4979C10.8867 11.2581 11.055 11.0531 11.2708 10.9089C11.4867 10.7647 11.7404 10.6877 12 10.6877C12.3481 10.6877 12.6819 10.826 12.9281 11.0721C13.1742 11.3183 13.3125 11.6521 13.3125 12.0002ZM7.1875 10.6877C6.92791 10.6877 6.67415 10.7647 6.45831 10.9089C6.24247 11.0531 6.07425 11.2581 5.97491 11.4979C5.87557 11.7378 5.84958 12.0017 5.90022 12.2563C5.95086 12.5109 6.07587 12.7447 6.25942 12.9283C6.44298 13.1119 6.67684 13.2369 6.93144 13.2875C7.18604 13.3381 7.44994 13.3121 7.68977 13.2128C7.9296 13.1135 8.13458 12.9452 8.2788 12.7294C8.42302 12.5136 8.5 12.2598 8.5 12.0002C8.5 11.6521 8.36172 11.3183 8.11558 11.0721C7.86944 10.826 7.5356 10.6877 7.1875 10.6877ZM16.8125 10.6877C16.5529 10.6877 16.2992 10.7647 16.0833 10.9089C15.8675 11.0531 15.6992 11.2581 15.5999 11.4979C15.5006 11.7378 15.4746 12.0017 15.5252 12.2563C15.5759 12.5109 15.7009 12.7447 15.8844 12.9283C16.068 13.1119 16.3018 13.2369 16.5564 13.2875C16.811 13.3381 17.0749 13.3121 17.3148 13.2128C17.5546 13.1135 17.7596 12.9452 17.9038 12.7294C18.048 12.5136 18.125 12.2598 18.125 12.0002C18.125 11.6521 17.9867 11.3183 17.7406 11.0721C17.4944 10.826 17.1606 10.6877 16.8125 10.6877ZM23.375 12.0002C23.3754 13.9641 22.8674 15.8946 21.9004 17.6039C20.9333 19.3132 19.5403 20.7429 17.8567 21.7541C16.1732 22.7652 14.2565 23.3233 12.2933 23.3739C10.3301 23.4246 8.38719 22.966 6.65375 22.043L2.92953 23.2844C2.62119 23.3873 2.2903 23.4022 1.97395 23.3275C1.6576 23.2529 1.3683 23.0916 1.13846 22.8618C0.908626 22.6319 0.747341 22.3426 0.672685 22.0263C0.598029 21.7099 0.612952 21.379 0.715781 21.0707L1.95719 17.3465C1.14579 15.8209 0.692591 14.1306 0.631997 12.4038C0.571404 10.677 0.905006 8.95901 1.60748 7.38036C2.30996 5.80171 3.36284 4.40385 4.68622 3.29286C6.0096 2.18188 7.56869 1.38699 9.24514 0.968518C10.9216 0.550047 12.6713 0.518999 14.3616 0.877729C16.0518 1.23646 17.6381 1.97554 19.0001 3.03887C20.3621 4.1022 21.4639 5.46184 22.2219 7.01457C22.9799 8.5673 23.3743 10.2723 23.375 12.0002ZM21.625 12.0002C21.6246 10.5238 21.2845 9.06725 20.6311 7.74328C19.9777 6.41931 19.0285 5.26341 17.8568 4.365C16.6852 3.46659 15.3226 2.84976 13.8744 2.56223C12.4263 2.2747 10.9314 2.32418 9.50541 2.70684C8.07943 3.0895 6.7606 3.79508 5.65095 4.76899C4.54129 5.7429 3.67057 6.95904 3.10613 8.32332C2.54169 9.68759 2.29868 11.1634 2.39588 12.6367C2.49309 14.1099 2.92792 15.541 3.66672 16.8193C3.72873 16.9266 3.76723 17.0459 3.77967 17.1692C3.79212 17.2925 3.77822 17.4171 3.73891 17.5346L2.375 21.6252L6.46562 20.2613C6.55472 20.2309 6.64821 20.2154 6.74234 20.2154C6.89602 20.2156 7.04691 20.2564 7.17984 20.3335C8.64306 21.1801 10.3034 21.6264 11.9939 21.6274C13.6844 21.6285 15.3453 21.1843 16.8096 20.3396C18.2739 19.4948 19.4899 18.2794 20.3352 16.8154C21.1805 15.3515 21.6254 13.6907 21.625 12.0002Z" fill="#74787D"/>
</svg>
