<svg width="22" height="23" viewBox="0 0 22 23" fill="none" xmlns="http://www.w3.org/2000/svg">
<path d="M20.9345 9.34994L12.1845 1.09431C12.1803 1.09058 12.1762 1.08656 12.1725 1.08228C11.8503 0.789301 11.4305 0.626953 10.9951 0.626953C10.5596 0.626953 10.1398 0.789301 9.81766 1.08228L9.80562 1.09431L1.06547 9.34994C0.887185 9.51388 0.744873 9.71304 0.647538 9.93482C0.550202 10.1566 0.499963 10.3962 0.5 10.6384V20.7501C0.5 21.2142 0.684374 21.6593 1.01256 21.9875C1.34075 22.3157 1.78587 22.5001 2.25 22.5001H7.5C7.96413 22.5001 8.40925 22.3157 8.73744 21.9875C9.06563 21.6593 9.25 21.2142 9.25 20.7501V15.5001H12.75V20.7501C12.75 21.2142 12.9344 21.6593 13.2626 21.9875C13.5908 22.3157 14.0359 22.5001 14.5 22.5001H19.75C20.2141 22.5001 20.6592 22.3157 20.9874 21.9875C21.3156 21.6593 21.5 21.2142 21.5 20.7501V10.6384C21.5 10.3962 21.4498 10.1566 21.3525 9.93482C21.2551 9.71304 21.1128 9.51388 20.9345 9.34994ZM19.75 20.7501H14.5V15.5001C14.5 15.036 14.3156 14.5908 13.9874 14.2627C13.6592 13.9345 13.2141 13.7501 12.75 13.7501H9.25C8.78587 13.7501 8.34075 13.9345 8.01256 14.2627C7.68437 14.5908 7.5 15.036 7.5 15.5001V20.7501H2.25V10.6384L2.26203 10.6274L11 2.37509L19.7391 10.6252L19.7511 10.6362L19.75 20.7501Z" fill="#74787D"/>
</svg>
