<svg width="28" height="28" viewBox="0 0 28 28" fill="none" xmlns="http://www.w3.org/2000/svg">
<path d="M7.75 7.6875H7.6875V7.75V20.25V20.3125H7.75H12.125C12.2742 20.3125 12.4173 20.3718 12.5227 20.4773C12.6282 20.5827 12.6875 20.7258 12.6875 20.875C12.6875 21.0242 12.6282 21.1673 12.5227 21.2727C12.4173 21.3782 12.2742 21.4375 12.125 21.4375H7.75C7.43506 21.4375 7.13301 21.3124 6.91031 21.0897C6.68761 20.867 6.5625 20.5649 6.5625 20.25V7.75C6.5625 7.43506 6.68761 7.13301 6.91031 6.91031C7.13301 6.68761 7.43506 6.5625 7.75 6.5625H12.125C12.2742 6.5625 12.4173 6.62176 12.5227 6.72725C12.6282 6.83274 12.6875 6.97582 12.6875 7.125C12.6875 7.27418 12.6282 7.41726 12.5227 7.52275C12.4173 7.62824 12.2742 7.6875 12.125 7.6875H7.75ZM21.273 13.602L21.273 13.602C21.3253 13.6543 21.3668 13.7163 21.3951 13.7846C21.4234 13.8529 21.438 13.9261 21.438 14C21.438 14.0739 21.4234 14.1471 21.3951 14.2154C21.3668 14.2837 21.3253 14.3457 21.273 14.398L21.273 14.398L18.148 17.523C18.0424 17.6285 17.8993 17.6878 17.75 17.6878C17.6007 17.6878 17.4576 17.6285 17.352 17.523C17.2465 17.4174 17.1872 17.2743 17.1872 17.125C17.1872 16.9757 17.2464 16.8326 17.352 16.727C17.352 16.727 17.352 16.727 17.352 16.727L19.4106 14.6692L19.5173 14.5625H19.3664H12.125C11.9758 14.5625 11.8327 14.5032 11.7273 14.3977C11.6218 14.2923 11.5625 14.1492 11.5625 14C11.5625 13.8508 11.6218 13.7077 11.7273 13.6023C11.8327 13.4968 11.9758 13.4375 12.125 13.4375H19.3664H19.5173L19.4106 13.3308L17.352 11.273C17.2465 11.1674 17.1872 11.0243 17.1872 10.875C17.1872 10.7257 17.2465 10.5826 17.352 10.477C17.4576 10.3715 17.6007 10.3122 17.75 10.3122C17.8993 10.3122 18.0424 10.3715 18.148 10.477L21.273 13.602Z" fill="#A0A4A8" stroke="#A0A4A8" stroke-width="0.125"/>
</svg>
