<svg width="24" height="24" viewBox="0 0 24 24" fill="none" xmlns="http://www.w3.org/2000/svg">
<path d="M23.1188 21.8807L17.6424 16.4054C19.2297 14.4998 20.0212 12.0555 19.8523 9.58119C19.6833 7.10685 18.567 4.79288 16.7354 3.12067C14.9039 1.44845 12.4981 0.546727 10.0187 0.603076C7.5392 0.659426 5.17691 1.66951 3.42321 3.42321C1.66951 5.17691 0.659426 7.5392 0.603076 10.0187C0.546727 12.4981 1.44845 14.9039 3.12067 16.7354C4.79288 18.567 7.10685 19.6833 9.58119 19.8523C12.0555 20.0212 14.4998 19.2297 16.4054 17.6424L21.8807 23.1188C21.962 23.2001 22.0585 23.2646 22.1647 23.3086C22.2709 23.3526 22.3848 23.3752 22.4998 23.3752C22.6147 23.3752 22.7286 23.3526 22.8348 23.3086C22.941 23.2646 23.0375 23.2001 23.1188 23.1188C23.2001 23.0375 23.2646 22.941 23.3086 22.8348C23.3526 22.7286 23.3752 22.6147 23.3752 22.4998C23.3752 22.3848 23.3526 22.2709 23.3086 22.1647C23.2646 22.0585 23.2001 21.962 23.1188 21.8807ZM2.37476 10.2498C2.37476 8.69223 2.83662 7.16968 3.70194 5.87465C4.56725 4.57961 5.79716 3.57025 7.23613 2.97421C8.6751 2.37817 10.2585 2.22222 11.7861 2.52608C13.3137 2.82994 14.7169 3.57996 15.8182 4.6813C16.9196 5.78263 17.6696 7.18582 17.9734 8.71342C18.2773 10.241 18.1214 11.8244 17.5253 13.2634C16.9293 14.7024 15.9199 15.9323 14.6249 16.7976C13.3298 17.6629 11.8073 18.1248 10.2498 18.1248C8.16189 18.1224 6.1602 17.292 4.68385 15.8157C3.20751 14.3393 2.37708 12.3376 2.37476 10.2498Z" fill="#74787D"/>
</svg>
