<svg width="50" height="60" viewBox="0 0 50 60" fill="none" xmlns="http://www.w3.org/2000/svg">
<path d="M41.1553 18.4642C41.1553 27.4309 33.9125 34.6997 24.978 34.6997C16.0436 34.6997 8.80078 27.4309 8.80078 18.4642C8.80078 9.49763 16.0436 2.22876 24.978 2.22876C33.9125 2.22876 41.1553 9.49763 41.1553 18.4642Z" fill="#F7F8F9"/>
<path fill-rule="evenodd" clip-rule="evenodd" d="M24.9785 4.4568C17.0952 4.4568 10.7045 10.8705 10.7045 18.7822C10.7045 22.7762 12.3302 26.3851 14.9593 28.9856C15.8327 29.8495 15.8429 31.2604 14.9821 32.137C14.1213 33.0135 12.7155 33.0238 11.8421 32.1599C8.40096 28.7561 6.26367 24.0176 6.26367 18.7822C6.26367 8.40909 14.6426 0 24.9785 0C35.3145 0 43.6934 8.40909 43.6934 18.7822C43.6934 27.6019 37.6383 34.9967 29.4755 37.0182C28.2849 37.313 27.0816 36.5834 26.7878 35.3885C26.494 34.1936 27.221 32.986 28.4116 32.6911C34.6378 31.1492 39.2526 25.5038 39.2526 18.7822C39.2526 10.8705 32.8619 4.4568 24.9785 4.4568Z" fill="#474C51"/>
<path fill-rule="evenodd" clip-rule="evenodd" d="M24.9785 20.3743C26.2048 20.3743 27.199 21.372 27.199 22.6027C27.199 32.9758 18.82 41.3849 8.48408 41.3849C7.25778 41.3849 6.26367 40.3872 6.26367 39.1565C6.26367 37.9258 7.25778 36.9281 8.48408 36.9281C16.3674 36.9281 22.7581 30.5144 22.7581 22.6027C22.7581 21.372 23.7522 20.3743 24.9785 20.3743Z" fill="#474C51"/>
<path d="M2.97091 50.9216C3.50381 50.9216 3.99674 50.9929 4.4497 51.1356C4.91154 51.2693 5.30678 51.4787 5.6354 51.764C5.96402 52.0492 6.22159 52.4102 6.4081 52.847C6.59461 53.2748 6.68787 53.7874 6.68787 54.3846C6.68787 54.955 6.60794 55.4542 6.44807 55.882C6.2882 56.3099 6.06172 56.6709 5.76862 56.9651C5.47553 57.2503 5.12026 57.4642 4.70283 57.6068C4.29427 57.7494 3.83687 57.8208 3.33061 57.8208C2.9487 57.8208 2.59344 57.7628 2.26482 57.6469V59.8664C2.176 59.8932 2.03389 59.9199 1.8385 59.9467C1.6431 59.9823 1.44327 60.0001 1.23899 60.0001C1.04359 60.0001 0.86596 59.9868 0.70609 59.96C0.555102 59.9333 0.426319 59.8798 0.319739 59.7996C0.213159 59.7194 0.133225 59.6079 0.0799348 59.4653C0.0266449 59.3316 0 59.1533 0 58.9305V52.5127C0 52.272 0.048849 52.0759 0.146547 51.9244C0.253127 51.7729 0.395233 51.6347 0.572866 51.5099C0.848196 51.3317 1.19014 51.189 1.59869 51.0821C2.00725 50.9751 2.46465 50.9216 2.97091 50.9216ZM2.99755 56.0291C3.91236 56.0291 4.36977 55.4809 4.36977 54.3846C4.36977 53.8141 4.2543 53.3907 4.02338 53.1144C3.80134 52.8381 3.47716 52.6999 3.05084 52.6999C2.88209 52.6999 2.7311 52.7222 2.59788 52.7667C2.46465 52.8024 2.34919 52.847 2.25149 52.9005V55.8419C2.35807 55.8954 2.47354 55.94 2.59788 55.9756C2.72222 56.0113 2.85545 56.0291 2.99755 56.0291Z" fill="#474C51"/>
<path d="M10.5902 56.1762C10.7412 56.1762 10.9055 56.1628 11.0831 56.1361C11.2697 56.1004 11.4073 56.0559 11.4961 56.0024V54.9328L10.5369 55.013C10.2882 55.0308 10.084 55.0843 9.92408 55.1734C9.76421 55.2626 9.68428 55.3963 9.68428 55.5745C9.68428 55.7528 9.75089 55.8999 9.88412 56.0158C10.0262 56.1227 10.2616 56.1762 10.5902 56.1762ZM10.4836 50.9216C10.9632 50.9216 11.3984 50.9707 11.7892 51.0687C12.1889 51.1668 12.5264 51.3183 12.8017 51.5233C13.0859 51.7194 13.3035 51.9734 13.4545 52.2854C13.6055 52.5885 13.681 52.9495 13.681 53.3684V56.3634C13.681 56.5951 13.6144 56.7868 13.4812 56.9383C13.3568 57.0809 13.2058 57.2057 13.0282 57.3127C12.4509 57.6603 11.6382 57.8341 10.5902 57.8341C10.1195 57.8341 9.69316 57.7896 9.31125 57.7004C8.93822 57.6113 8.61404 57.4776 8.33871 57.2993C8.07226 57.121 7.86354 56.8937 7.71256 56.6174C7.57045 56.3411 7.4994 56.0202 7.4994 55.6548C7.4994 55.0397 7.68147 54.5673 8.04562 54.2375C8.40976 53.9077 8.97375 53.7027 9.73757 53.6225L11.4828 53.4353V53.3417C11.4828 53.0832 11.3673 52.9005 11.1364 52.7935C10.9144 52.6776 10.5902 52.6197 10.1639 52.6197C9.82638 52.6197 9.49776 52.6553 9.17803 52.7266C8.85829 52.7979 8.56963 52.8871 8.31207 52.994C8.19661 52.9138 8.09891 52.7935 8.01897 52.633C7.93904 52.4637 7.89907 52.2899 7.89907 52.1116C7.89907 51.8798 7.95236 51.6971 8.05894 51.5634C8.1744 51.4208 8.34759 51.3005 8.57852 51.2024C8.83608 51.1044 9.13806 51.0331 9.48444 50.9885C9.83971 50.9439 10.1728 50.9216 10.4836 50.9216Z" fill="#474C51"/>
<path d="M18.6651 57.4196C18.5407 57.5266 18.372 57.6113 18.1588 57.6737C17.9457 57.745 17.6925 57.7806 17.3994 57.7806C17.0353 57.7806 16.72 57.7272 16.4535 57.6202C16.1871 57.5222 16.0095 57.3795 15.9206 57.1923C15.8229 56.9784 15.7075 56.6397 15.5743 56.1762C15.4499 55.7127 15.3256 55.2046 15.2012 54.652C15.0769 54.0993 14.957 53.5378 14.8415 52.9673C14.7349 52.3968 14.6506 51.8932 14.5884 51.4564C14.7127 51.3317 14.8771 51.2247 15.0813 51.1356C15.2945 51.0375 15.5254 50.9885 15.7741 50.9885C16.085 50.9885 16.3381 51.0598 16.5335 51.2024C16.7378 51.3361 16.8621 51.5723 16.9065 51.911C16.9953 52.5885 17.0708 53.15 17.133 53.5957C17.1952 54.0325 17.244 54.3935 17.2795 54.6787C17.3239 54.955 17.355 55.169 17.3728 55.3205C17.3994 55.4631 17.4216 55.579 17.4394 55.6681H17.4927C17.5193 55.5255 17.5637 55.3205 17.6259 55.0531C17.697 54.7768 17.7769 54.4648 17.8657 54.1172C17.9545 53.7695 18.0478 53.3952 18.1455 52.994C18.2432 52.584 18.3409 52.1784 18.4386 51.7773C18.6162 51.6793 18.7894 51.6035 18.9582 51.55C19.1358 51.4966 19.3534 51.4698 19.611 51.4698C19.9218 51.4698 20.1883 51.5188 20.4103 51.6169C20.6324 51.7149 20.7745 51.8665 20.8366 52.0715C20.9432 52.4637 21.0454 52.847 21.143 53.2213C21.2407 53.5868 21.3296 53.93 21.4095 54.2509C21.4894 54.5628 21.5605 54.8436 21.6227 55.0932C21.6848 55.3339 21.7292 55.5255 21.7559 55.6681H21.8225C21.9202 54.9818 22.0134 54.2687 22.1023 53.5289C22.2 52.789 22.2888 52.0358 22.3687 51.2693C22.5286 51.1712 22.6973 51.0999 22.875 51.0553C23.0526 51.0108 23.2302 50.9885 23.4079 50.9885C23.7187 50.9885 23.9763 51.0553 24.1806 51.189C24.3848 51.3227 24.487 51.5545 24.487 51.8843C24.487 52.0269 24.4648 52.2408 24.4204 52.5261C24.376 52.8113 24.3182 53.1322 24.2472 53.4887C24.1761 53.8453 24.0918 54.2197 23.9941 54.6119C23.9052 55.0041 23.812 55.3829 23.7143 55.7483C23.6255 56.1138 23.5366 56.4436 23.4478 56.7378C23.3679 57.0319 23.2968 57.2592 23.2347 57.4196C23.1103 57.5266 22.9194 57.6113 22.6618 57.6737C22.4042 57.745 22.1289 57.7806 21.8358 57.7806C21.0898 57.7806 20.6501 57.5935 20.5169 57.2191C20.4636 57.0586 20.397 56.8581 20.3171 56.6174C20.2371 56.3678 20.1527 56.096 20.0639 55.8018C19.9751 55.5077 19.8907 55.2046 19.8108 54.8926C19.7309 54.5718 19.6643 54.2642 19.611 53.9701C19.5488 54.2821 19.4733 54.6074 19.3845 54.9461C19.2957 55.2759 19.2024 55.6013 19.1047 55.9222C19.0159 56.2341 18.9315 56.5238 18.8516 56.7912C18.7717 57.0497 18.7095 57.2592 18.6651 57.4196Z" fill="#474C51"/>
<path d="M28.4839 50.9216C29.0168 50.9216 29.5098 50.9929 29.9627 51.1356C30.4246 51.2693 30.8198 51.4787 31.1484 51.764C31.477 52.0492 31.7346 52.4102 31.9211 52.847C32.1076 53.2748 32.2009 53.7874 32.2009 54.3846C32.2009 54.955 32.121 55.4542 31.9611 55.882C31.8012 56.3099 31.5747 56.6709 31.2816 56.9651C30.9886 57.2503 30.6333 57.4642 30.2158 57.6068C29.8073 57.7494 29.3499 57.8208 28.8436 57.8208C28.4617 57.8208 28.1065 57.7628 27.7778 57.6469V59.8664C27.689 59.8932 27.5469 59.9199 27.3515 59.9467C27.1561 59.9823 26.9563 60.0001 26.752 60.0001C26.5566 60.0001 26.379 59.9868 26.2191 59.96C26.0681 59.9333 25.9393 59.8798 25.8328 59.7996C25.7262 59.7194 25.6462 59.6079 25.593 59.4653C25.5397 59.3316 25.513 59.1533 25.513 58.9305V52.5127C25.513 52.272 25.5619 52.0759 25.6596 51.9244C25.7661 51.7729 25.9083 51.6347 26.0859 51.5099C26.3612 51.3317 26.7032 51.189 27.1117 51.0821C27.5203 50.9751 27.9777 50.9216 28.4839 50.9216ZM28.5106 56.0291C29.4254 56.0291 29.8828 55.4809 29.8828 54.3846C29.8828 53.8141 29.7673 53.3907 29.5364 53.1144C29.3144 52.8381 28.9902 52.6999 28.5639 52.6999C28.3951 52.6999 28.2441 52.7222 28.1109 52.7667C27.9777 52.8024 27.8622 52.847 27.7645 52.9005V55.8419C27.8711 55.8954 27.9866 55.94 28.1109 55.9756C28.2352 56.0113 28.3685 56.0291 28.5106 56.0291Z" fill="#474C51"/>
<path d="M36.1032 56.1762C36.2542 56.1762 36.4185 56.1628 36.5962 56.1361C36.7827 56.1004 36.9203 56.0559 37.0092 56.0024V54.9328L36.0499 55.013C35.8013 55.0308 35.597 55.0843 35.4371 55.1734C35.2772 55.2626 35.1973 55.3963 35.1973 55.5745C35.1973 55.7528 35.2639 55.8999 35.3971 56.0158C35.5392 56.1227 35.7746 56.1762 36.1032 56.1762ZM35.9966 50.9216C36.4763 50.9216 36.9115 50.9707 37.3022 51.0687C37.7019 51.1668 38.0394 51.3183 38.3148 51.5233C38.599 51.7194 38.8166 51.9734 38.9676 52.2854C39.1185 52.5885 39.194 52.9495 39.194 53.3684V56.3634C39.194 56.5951 39.1274 56.7868 38.9942 56.9383C38.8699 57.0809 38.7189 57.2057 38.5412 57.3127C37.9639 57.6603 37.1513 57.8341 36.1032 57.8341C35.6325 57.8341 35.2062 57.7896 34.8243 57.7004C34.4512 57.6113 34.1271 57.4776 33.8517 57.2993C33.5853 57.121 33.3766 56.8937 33.2256 56.6174C33.0835 56.3411 33.0124 56.0202 33.0124 55.6548C33.0124 55.0397 33.1945 54.5673 33.5586 54.2375C33.9228 53.9077 34.4868 53.7027 35.2506 53.6225L36.9958 53.4353V53.3417C36.9958 53.0832 36.8804 52.9005 36.6494 52.7935C36.4274 52.6776 36.1032 52.6197 35.6769 52.6197C35.3394 52.6197 35.0108 52.6553 34.691 52.7266C34.3713 52.7979 34.0827 52.8871 33.8251 52.994C33.7096 52.9138 33.6119 52.7935 33.532 52.633C33.4521 52.4637 33.4121 52.2899 33.4121 52.1116C33.4121 51.8798 33.4654 51.6971 33.572 51.5634C33.6874 51.4208 33.8606 51.3005 34.0915 51.2024C34.3491 51.1044 34.6511 51.0331 34.9975 50.9885C35.3527 50.9439 35.6858 50.9216 35.9966 50.9216Z" fill="#474C51"/>
<path d="M44.1781 57.4196C44.0537 57.5266 43.885 57.6113 43.6718 57.6737C43.4587 57.745 43.2056 57.7806 42.9125 57.7806C42.5483 57.7806 42.233 57.7272 41.9666 57.6202C41.7001 57.5222 41.5225 57.3795 41.4337 57.1923C41.336 56.9784 41.2205 56.6397 41.0873 56.1762C40.9629 55.7127 40.8386 55.2046 40.7142 54.652C40.5899 54.0993 40.47 53.5378 40.3545 52.9673C40.248 52.3968 40.1636 51.8932 40.1014 51.4564C40.2258 51.3317 40.3901 51.2247 40.5944 51.1356C40.8075 51.0375 41.0384 50.9885 41.2871 50.9885C41.598 50.9885 41.8511 51.0598 42.0465 51.2024C42.2508 51.3361 42.3751 51.5723 42.4195 51.911C42.5083 52.5885 42.5838 53.15 42.646 53.5957C42.7082 54.0325 42.757 54.3935 42.7926 54.6787C42.837 54.955 42.868 55.169 42.8858 55.3205C42.9125 55.4631 42.9347 55.579 42.9524 55.6681H43.0057C43.0324 55.5255 43.0768 55.3205 43.1389 55.0531C43.21 54.7768 43.2899 54.4648 43.3787 54.1172C43.4676 53.7695 43.5608 53.3952 43.6585 52.994C43.7562 52.584 43.8539 52.1784 43.9516 51.7773C44.1292 51.6793 44.3024 51.6035 44.4712 51.55C44.6488 51.4966 44.8664 51.4698 45.124 51.4698C45.4348 51.4698 45.7013 51.5188 45.9233 51.6169C46.1454 51.7149 46.2875 51.8665 46.3496 52.0715C46.4562 52.4637 46.5584 52.847 46.6561 53.2213C46.7538 53.5868 46.8426 53.93 46.9225 54.2509C47.0024 54.5628 47.0735 54.8436 47.1357 55.0932C47.1978 55.3339 47.2423 55.5255 47.2689 55.6681H47.3355C47.4332 54.9818 47.5265 54.2687 47.6153 53.5289C47.713 52.789 47.8018 52.0358 47.8817 51.2693C48.0416 51.1712 48.2104 51.0999 48.388 51.0553C48.5656 51.0108 48.7433 50.9885 48.9209 50.9885C49.2317 50.9885 49.4893 51.0553 49.6936 51.189C49.8979 51.3227 50 51.5545 50 51.8843C50 52.0269 49.9778 52.2408 49.9334 52.5261C49.889 52.8113 49.8312 53.1322 49.7602 53.4887C49.6891 53.8453 49.6048 54.2197 49.5071 54.6119C49.4183 55.0041 49.325 55.3829 49.2273 55.7483C49.1385 56.1138 49.0497 56.4436 48.9608 56.7378C48.8809 57.0319 48.8099 57.2592 48.7477 57.4196C48.6233 57.5266 48.4324 57.6113 48.1748 57.6737C47.9173 57.745 47.6419 57.7806 47.3488 57.7806C46.6028 57.7806 46.1631 57.5935 46.0299 57.2191C45.9766 57.0586 45.91 56.8581 45.8301 56.6174C45.7501 56.3678 45.6658 56.096 45.5769 55.8018C45.4881 55.5077 45.4038 55.2046 45.3238 54.8926C45.2439 54.5718 45.1773 54.2642 45.124 53.9701C45.0618 54.2821 44.9863 54.6074 44.8975 54.9461C44.8087 55.2759 44.7154 55.6013 44.6177 55.9222C44.5289 56.2341 44.4445 56.5238 44.3646 56.7912C44.2847 57.0497 44.2225 57.2592 44.1781 57.4196Z" fill="#474C51"/>
</svg>
