<svg  viewBox="0 0 42 42" fill="none" xmlns="http://www.w3.org/2000/svg">
<rect x="0.5" y="-0.5" width="41" height="41" rx="20.5" transform="matrix(-1 0 0 1 42 1)" fill="#F7F8F9"/>
<path d="M19.5 24.9021V27.8126C19.5003 28.0598 19.4395 28.3032 19.3231 28.5213C19.2066 28.7393 19.0381 28.9252 18.8325 29.0623M19.5 24.9021L15.5156 28.8748C15.5752 29.107 15.6895 29.3214 15.849 29.5003C16.0086 29.6791 16.2086 29.8172 16.4324 29.9028C16.6562 29.9885 16.8973 30.0193 17.1355 29.9926C17.3736 29.9659 17.6019 29.8826 17.8013 29.7495L18.8325 29.0623M19.5 24.9021C19.4969 24.9016 19.4937 24.9012 19.4906 24.9007L19.5 24.8389H19.5625V24.8486C21.1627 25.0996 24.7907 25.9671 28.2853 28.8983C28.504 29.0819 28.7706 29.1994 29.0537 29.2367C29.3368 29.2741 29.6247 29.2299 29.8835 29.1093C30.1424 28.9887 30.3614 28.7967 30.5149 28.5558C30.6684 28.315 30.75 28.0354 30.75 27.7498L19.5 24.9021ZM18.8325 29.0623L18.7978 29.0103M18.8325 29.0623L18.7978 29.0103L18.7978 29.0103M18.7978 29.0103C18.9949 28.8789 19.1564 28.7008 19.268 28.4918C19.3796 28.2829 19.4378 28.0496 19.4375 27.8127V27.8126V24.8389V24.7662L19.5094 24.7771C21.0827 25.0163 24.7728 25.8705 28.3255 28.8504L28.3255 28.8504C28.5351 29.0264 28.7905 29.1389 29.0618 29.1748C29.3332 29.2106 29.6091 29.1682 29.8571 29.0526C30.1052 28.937 30.3151 28.753 30.4622 28.5223C30.6093 28.2915 30.6875 28.0235 30.6875 27.7498V12.7499C30.6873 12.4763 30.609 12.2084 30.4618 11.9778C30.3147 11.7471 30.1048 11.5633 29.8567 11.4478C29.6087 11.3323 29.3329 11.29 29.0616 11.3259C28.7904 11.3617 28.535 11.4742 28.3255 11.6502L28.3255 11.6502C23.7835 15.4595 19.0139 15.7959 18.7349 15.8122L18.7349 15.8123H18.7313H15.0001C13.8235 15.8136 12.6955 16.2815 11.8636 17.1134C11.0316 17.9454 10.5637 19.0734 10.5625 20.2499M18.7978 29.0103L17.7666 29.6975L17.7666 29.6975C17.5755 29.825 17.3567 29.9049 17.1285 29.9305C16.9003 29.956 16.6692 29.9265 16.4547 29.8444C16.2403 29.7624 16.0485 29.6301 15.8957 29.4587C15.7428 29.2873 15.6333 29.0817 15.5762 28.8593L15.576 28.8588L14.4726 24.7001L14.4619 24.6596L14.4204 24.6541C13.3529 24.5121 12.3732 23.9872 11.6636 23.1771C10.954 22.367 10.5627 21.3268 10.5625 20.2499M10.5625 20.2499C10.5625 20.2499 10.5625 20.2498 10.5625 20.2498L10.5 20.2498L10.5625 20.2499ZM29.3125 27.7433V27.8771L29.2099 27.7912C25.2058 24.4395 21.1113 23.5921 19.4919 23.3793L19.4375 23.3722V23.3173V17.1786V17.1236L19.492 17.1166C21.1132 16.9075 25.2085 16.0583 29.2098 12.702L29.3125 12.6158V12.7498V27.7433ZM16.9062 28.5036V28.5014L15.9146 24.7659L15.8937 24.6873H15.975H18H18.0625V24.7498V27.8164V27.8499L18.0347 27.8684L17.0034 28.5556L16.9062 28.6203V28.5036ZM18.0625 23.2498V23.3123H18H15C14.1878 23.3123 13.4088 22.9897 12.8345 22.4153C12.2602 21.841 11.9375 21.0621 11.9375 20.2498C11.9375 19.4376 12.2602 18.6587 12.8345 18.0843C13.4088 17.51 14.1878 17.1873 15 17.1873H18H18.0625V17.2498V23.2498Z" fill="#CBCDD2" stroke="#CBCDD2" stroke-width="0.125"/>
<rect x="0.5" y="-0.5" width="41" height="41" rx="20.5" transform="matrix(-1 0 0 1 42 1)" stroke="#CBCDD2"/>
</svg>
