<svg  viewBox="0 0 42 42" fill="none" xmlns="http://www.w3.org/2000/svg">
<rect x="0.5" y="0.5" width="41" height="41" rx="20.5" fill="#F5FFF6"/>
<path d="M26.1875 12V12.0625H26.25H28.5C28.8812 12.0625 29.2469 12.214 29.5165 12.4835C29.786 12.7531 29.9375 13.1188 29.9375 13.5V28.5C29.9375 28.8812 29.786 29.2469 29.5165 29.5165C29.2469 29.786 28.8812 29.9375 28.5 29.9375H13.5C13.1188 29.9375 12.7531 29.786 12.4835 29.5165C12.214 29.2469 12.0625 28.8812 12.0625 28.5V13.5C12.0625 13.1188 12.214 12.7531 12.4835 12.4835C12.7531 12.214 13.1188 12.0625 13.5 12.0625H15.75H15.8125V12V11.25C15.8125 11.0677 15.8849 10.8928 16.0139 10.7639C16.1428 10.6349 16.3177 10.5625 16.5 10.5625C16.6823 10.5625 16.8572 10.6349 16.9861 10.7639C17.1151 10.8928 17.1875 11.0677 17.1875 11.25V12V12.0625H17.25H24.75H24.8125V12V11.25C24.8125 11.0677 24.8849 10.8928 25.0139 10.7639C25.1428 10.6349 25.3177 10.5625 25.5 10.5625C25.6823 10.5625 25.8572 10.6349 25.9861 10.7639C26.1151 10.8928 26.1875 11.0677 26.1875 11.25V12ZM15.8125 13.5V13.4375H15.75H13.5H13.4375V13.5V16.5V16.5625H13.5H28.5H28.5625V16.5V13.5V13.4375H28.5H26.25H26.1875V13.5V14.25C26.1875 14.4323 26.1151 14.6072 25.9861 14.7361C25.8572 14.8651 25.6823 14.9375 25.5 14.9375C25.3177 14.9375 25.1428 14.8651 25.0139 14.7361C24.8849 14.6072 24.8125 14.4323 24.8125 14.25V13.5V13.4375H24.75H17.25H17.1875V13.5V14.25C17.1875 14.4323 17.1151 14.6072 16.9861 14.7361C16.8572 14.8651 16.6823 14.9375 16.5 14.9375C16.3177 14.9375 16.1428 14.8651 16.0139 14.7361C15.8849 14.6072 15.8125 14.4323 15.8125 14.25V13.5ZM28.5 28.5625H28.5625V28.5V18V17.9375H28.5H13.5H13.4375V18V28.5V28.5625H13.5H28.5ZM24.8614 20.5135L24.8615 20.5136C24.9254 20.5774 24.9761 20.6533 25.0107 20.7367C25.0453 20.8202 25.0631 20.9097 25.0631 21C25.0631 21.0903 25.0453 21.1798 25.0107 21.2633C24.9761 21.3467 24.9254 21.4226 24.8615 21.4864L24.8614 21.4864L20.3614 25.9864L20.3614 25.9865C20.2976 26.0504 20.2217 26.1011 20.1383 26.1357C20.0548 26.1703 19.9653 26.1881 19.875 26.1881C19.7847 26.1881 19.6952 26.1703 19.6117 26.1357C19.5283 26.1011 19.4524 26.0504 19.3886 25.9865L19.3886 25.9864L17.1386 23.7364C17.0096 23.6074 16.9371 23.4324 16.9371 23.25C16.9371 23.0676 17.0096 22.8926 17.1386 22.7636C17.2676 22.6346 17.4426 22.5621 17.625 22.5621C17.8074 22.5621 17.9824 22.6346 18.1114 22.7636L19.8308 24.4839L19.875 24.5281L19.9192 24.4839L23.8886 20.5136L23.8886 20.5135C23.9524 20.4496 24.0283 20.3989 24.1117 20.3643C24.1952 20.3297 24.2847 20.3119 24.375 20.3119C24.4653 20.3119 24.5548 20.3297 24.6383 20.3643C24.7217 20.3989 24.7976 20.4496 24.8614 20.5135Z" fill="#0ABE7D" stroke="#0ABE7D" stroke-width="0.125"/>
<rect x="0.5" y="0.5" width="41" height="41" rx="20.5" stroke="#0ABE7D"/>
</svg>
