<svg width="28" height="28" viewBox="0 0 28 28" fill="none" xmlns="http://www.w3.org/2000/svg">
<g clip-path="url(#clip0_2434_12699)">
<path d="M24.4369 7.85617H19.8605V5.75788C19.8605 5.20628 19.4128 4.76001 18.8596 4.76001H9.13951C8.58622 4.76001 8.13859 5.20628 8.13859 5.75788V7.85617H3.56216C2.98941 7.85617 2.51953 8.32462 2.51953 8.89562V21.9206C2.51953 22.4916 2.98941 22.96 3.56216 22.96H24.4397C25.0124 22.96 25.4823 22.4916 25.4823 21.9206V8.89562C25.4823 8.32462 25.0124 7.85617 24.4397 7.85617H24.4369Z" fill="#A0A4A8"/>
<path d="M13.9996 20.7786C16.9755 20.7786 19.3879 18.3736 19.3879 15.4068C19.3879 12.44 16.9755 10.0349 13.9996 10.0349C11.0237 10.0349 8.61133 12.44 8.61133 15.4068C8.61133 18.3736 11.0237 20.7786 13.9996 20.7786Z" fill="#E9EBED"/>
<path d="M6.15637 10.1318H5.23052C4.88963 10.1318 4.61328 10.4073 4.61328 10.7472V11.1547C4.61328 11.4945 4.88963 11.77 5.23052 11.77H6.15637C6.49726 11.77 6.7736 11.4945 6.7736 11.1547V10.7472C6.7736 10.4073 6.49726 10.1318 6.15637 10.1318Z" fill="#E9EBED"/>
<path d="M14.0005 19.2043C16.1041 19.2043 17.8095 17.5041 17.8095 15.4068C17.8095 13.3095 16.1041 11.6094 14.0005 11.6094C11.8968 11.6094 10.1914 13.3095 10.1914 15.4068C10.1914 17.5041 11.8968 19.2043 14.0005 19.2043Z" fill="#A0A4A8"/>
</g>
<defs>
<clipPath id="clip0_2434_12699">
<rect width="22.96" height="18.2" fill="white" transform="translate(2.51953 4.76001)"/>
</clipPath>
</defs>
</svg>
