<svg width="14" height="14" viewBox="0 0 14 14" fill="none" xmlns="http://www.w3.org/2000/svg">
<path d="M7.26558 9.89058L7.26556 9.8906C7.23073 9.92547 7.18937 9.95313 7.14385 9.972C7.09832 9.99087 7.04952 10.0006 7.00024 10.0006C6.95096 10.0006 6.90216 9.99087 6.85664 9.972C6.81112 9.95313 6.76976 9.92547 6.73493 9.8906L6.73491 9.89058L2.35991 5.51558C2.28953 5.44521 2.25 5.34976 2.25 5.25024C2.25 5.15072 2.28953 5.05528 2.35991 4.98491C2.43028 4.91453 2.52572 4.875 2.62524 4.875C2.72476 4.875 2.82021 4.91453 2.89058 4.9849C2.89058 4.9849 2.89058 4.9849 2.89058 4.98491L6.95605 9.05092L7.00024 9.09512L7.04444 9.05092L11.1099 4.9849C11.1448 4.95006 11.1861 4.92242 11.2316 4.90356C11.2772 4.88471 11.326 4.875 11.3752 4.875C11.4245 4.875 11.4733 4.88471 11.5188 4.90356C11.5644 4.92242 11.6057 4.95006 11.6406 4.98491C11.6754 5.01975 11.7031 5.06112 11.7219 5.10664C11.7408 5.15217 11.7505 5.20097 11.7505 5.25024C11.7505 5.29952 11.7408 5.34832 11.7219 5.39384C11.7031 5.43937 11.6754 5.48074 11.6406 5.51558L7.26558 9.89058Z" fill="#A0A4A8" stroke="#A0A4A8" stroke-width="0.125"/>
</svg>
