<svg  viewBox="0 0 32 32" fill="none" xmlns="http://www.w3.org/2000/svg">
<path d="M7 13.9376H6.9375V14.0001V26.0001V26.0626H7H25H25.0625V26.0001V14.0001V13.9376H25H22C21.7514 13.9376 21.5129 13.8388 21.3371 13.663C21.1613 13.4872 21.0625 13.2487 21.0625 13.0001C21.0625 12.7514 21.1613 12.513 21.3371 12.3371C21.5129 12.1613 21.7514 12.0626 22 12.0626H25C25.5139 12.0626 26.0067 12.2667 26.37 12.63C26.7334 12.9934 26.9375 13.4862 26.9375 14.0001V26.0001C26.9375 26.5139 26.7334 27.0067 26.37 27.3701C26.0067 27.7334 25.5139 27.9376 25 27.9376H7C6.48614 27.9376 5.99333 27.7334 5.62998 27.3701C5.26663 27.0067 5.0625 26.5139 5.0625 26.0001V14.0001C5.0625 13.4862 5.26663 12.9934 5.62998 12.63C5.99333 12.2667 6.48614 12.0626 7 12.0626H10C10.2486 12.0626 10.4871 12.1613 10.6629 12.3371C10.8387 12.513 10.9375 12.7514 10.9375 13.0001C10.9375 13.2487 10.8387 13.4872 10.6629 13.663C10.4871 13.8388 10.2486 13.9376 10 13.9376H7ZM15.0625 5.4138V5.26288L14.9558 5.36962L11.6633 8.66336C11.4874 8.83928 11.2488 8.93811 11 8.93811C10.7512 8.93811 10.5126 8.83928 10.3367 8.66336C10.1608 8.48744 10.0619 8.24884 10.0619 8.00005C10.0619 7.75127 10.1608 7.51267 10.3367 7.33675L15.3367 2.33675L15.3367 2.33672C15.4238 2.24956 15.5272 2.18041 15.641 2.13323C15.7548 2.08605 15.8768 2.06177 16 2.06177C16.1232 2.06177 16.2452 2.08605 16.359 2.13323C16.4728 2.18041 16.5762 2.24956 16.6633 2.33672L16.6633 2.33675L21.6633 7.33675C21.8392 7.51267 21.9381 7.75127 21.9381 8.00005C21.9381 8.24884 21.8392 8.48744 21.6633 8.66336C21.4874 8.83928 21.2488 8.93811 21 8.93811C20.7512 8.93811 20.5126 8.83928 20.3367 8.66337C20.3367 8.66337 20.3367 8.66336 20.3367 8.66336L17.0442 5.36962L16.9375 5.26288V5.4138V17.0001C16.9375 17.2487 16.8387 17.4872 16.6629 17.663C16.4871 17.8388 16.2486 17.9376 16 17.9376C15.7514 17.9376 15.5129 17.8388 15.3371 17.663C15.1613 17.4872 15.0625 17.2487 15.0625 17.0001V5.4138Z" fill="#474C51" stroke="#474C51" stroke-width="0.125"/>
</svg>
