<svg width="19" height="22" viewBox="0 0 19 22" fill="none" xmlns="http://www.w3.org/2000/svg">
<rect width="19" height="22" fill="#F5F5F5"/>
<g clip-path="url(#clip0_1_2)">
<rect width="1920" height="960" transform="translate(-1822 -137)" fill="white"/>
<g filter="url(#filter0_d_1_2)">
<rect x="-459" y="-37" width="517" height="266" rx="10" fill="white" shape-rendering="crispEdges"/>
<mask id="path-3-inside-1_1_2" fill="white">
<path d="M14.4992 14.0001C13.9989 13.9999 13.5037 14.1001 13.0428 14.2948C12.5819 14.4895 12.1648 14.7747 11.8161 15.1335L7.49425 12.3557C7.83421 11.4839 7.83421 10.5162 7.49425 9.64445L11.8161 6.86664C12.4653 7.53162 13.3383 7.93187 14.2658 7.98979C15.1933 8.0477 16.1093 7.75915 16.8361 7.18009C17.563 6.60102 18.0489 5.77269 18.1998 4.85569C18.3506 3.93869 18.1555 2.99835 17.6525 2.21698C17.1494 1.43562 16.3741 0.868892 15.4768 0.626682C14.5796 0.384471 13.6245 0.484032 12.7965 0.906062C11.9685 1.32809 11.3268 2.04252 10.9956 2.91084C10.6645 3.77917 10.6676 4.73951 11.0042 5.6057L6.68237 8.38351C6.16194 7.84921 5.49399 7.48224 4.76391 7.32952C4.03383 7.1768 3.2748 7.24527 2.58384 7.52617C1.89287 7.80707 1.30137 8.28764 0.884947 8.90645C0.468523 9.52526 0.246094 10.2542 0.246094 11.0001C0.246094 11.746 0.468523 12.4749 0.884947 13.0937C1.30137 13.7125 1.89287 14.1931 2.58384 14.474C3.2748 14.7549 4.03383 14.8233 4.76391 14.6706C5.49399 14.5179 6.16194 14.1509 6.68237 13.6166L11.0042 16.3944C10.7147 17.1412 10.6719 17.961 10.882 18.7339C11.0921 19.5067 11.5441 20.192 12.1719 20.6894C12.7997 21.1867 13.5702 21.47 14.3706 21.4978C15.171 21.5256 15.9593 21.2964 16.6201 20.8437C17.2808 20.3911 17.7792 19.7388 18.0424 18.9823C18.3056 18.2259 18.3197 17.4051 18.0826 16.64C17.8455 15.875 17.3697 15.206 16.7249 14.731C16.0801 14.2559 15.3002 13.9998 14.4992 14.0001ZM14.4992 2.00007C14.9443 2.00007 15.3793 2.13203 15.7493 2.37927C16.1193 2.6265 16.4077 2.9779 16.578 3.38904C16.7483 3.80017 16.7928 4.25257 16.706 4.68903C16.6192 5.12548 16.4049 5.5264 16.0902 5.84106C15.7756 6.15573 15.3747 6.37002 14.9382 6.45684C14.5017 6.54366 14.0493 6.4991 13.6382 6.3288C13.2271 6.15851 12.8757 5.87012 12.6284 5.50011C12.3812 5.1301 12.2492 4.69508 12.2492 4.25007C12.2492 3.65334 12.4863 3.08104 12.9083 2.65908C13.3302 2.23713 13.9025 2.00007 14.4992 2.00007ZM3.99925 13.2501C3.55424 13.2501 3.11923 13.1181 2.74922 12.8709C2.37921 12.6236 2.09082 12.2722 1.92052 11.8611C1.75022 11.45 1.70567 10.9976 1.79248 10.5611C1.8793 10.1247 2.09359 9.72375 2.40826 9.40908C2.72293 9.09441 3.12384 8.88012 3.5603 8.79331C3.99675 8.70649 4.44915 8.75105 4.86029 8.92134C5.27142 9.09164 5.62282 9.38003 5.87006 9.75004C6.11729 10.1201 6.24925 10.5551 6.24925 11.0001C6.24925 11.5968 6.0122 12.1691 5.59024 12.5911C5.16828 13.013 4.59599 13.2501 3.99925 13.2501ZM14.4992 20.0001C14.0542 20.0001 13.6192 19.8681 13.2492 19.6209C12.8792 19.3736 12.5908 19.0222 12.4205 18.6111C12.2502 18.2 12.2057 17.7476 12.2925 17.3111C12.3793 16.8747 12.5936 16.4738 12.9083 16.1591C13.2229 15.8444 13.6238 15.6301 14.0603 15.5433C14.4968 15.4565 14.9492 15.501 15.3603 15.6713C15.7714 15.8416 16.1228 16.13 16.3701 16.5C16.6173 16.8701 16.7492 17.3051 16.7492 17.7501C16.7492 18.3468 16.5122 18.9191 16.0902 19.3411C15.6683 19.763 15.096 20.0001 14.4992 20.0001Z"/>
</mask>
<path d="M14.4992 14.0001C13.9989 13.9999 13.5037 14.1001 13.0428 14.2948C12.5819 14.4895 12.1648 14.7747 11.8161 15.1335L7.49425 12.3557C7.83421 11.4839 7.83421 10.5162 7.49425 9.64445L11.8161 6.86664C12.4653 7.53162 13.3383 7.93187 14.2658 7.98979C15.1933 8.0477 16.1093 7.75915 16.8361 7.18009C17.563 6.60102 18.0489 5.77269 18.1998 4.85569C18.3506 3.93869 18.1555 2.99835 17.6525 2.21698C17.1494 1.43562 16.3741 0.868892 15.4768 0.626682C14.5796 0.384471 13.6245 0.484032 12.7965 0.906062C11.9685 1.32809 11.3268 2.04252 10.9956 2.91084C10.6645 3.77917 10.6676 4.73951 11.0042 5.6057L6.68237 8.38351C6.16194 7.84921 5.49399 7.48224 4.76391 7.32952C4.03383 7.1768 3.2748 7.24527 2.58384 7.52617C1.89287 7.80707 1.30137 8.28764 0.884947 8.90645C0.468523 9.52526 0.246094 10.2542 0.246094 11.0001C0.246094 11.746 0.468523 12.4749 0.884947 13.0937C1.30137 13.7125 1.89287 14.1931 2.58384 14.474C3.2748 14.7549 4.03383 14.8233 4.76391 14.6706C5.49399 14.5179 6.16194 14.1509 6.68237 13.6166L11.0042 16.3944C10.7147 17.1412 10.6719 17.961 10.882 18.7339C11.0921 19.5067 11.5441 20.192 12.1719 20.6894C12.7997 21.1867 13.5702 21.47 14.3706 21.4978C15.171 21.5256 15.9593 21.2964 16.6201 20.8437C17.2808 20.3911 17.7792 19.7388 18.0424 18.9823C18.3056 18.2259 18.3197 17.4051 18.0826 16.64C17.8455 15.875 17.3697 15.206 16.7249 14.731C16.0801 14.2559 15.3002 13.9998 14.4992 14.0001ZM14.4992 2.00007C14.9443 2.00007 15.3793 2.13203 15.7493 2.37927C16.1193 2.6265 16.4077 2.9779 16.578 3.38904C16.7483 3.80017 16.7928 4.25257 16.706 4.68903C16.6192 5.12548 16.4049 5.5264 16.0902 5.84106C15.7756 6.15573 15.3747 6.37002 14.9382 6.45684C14.5017 6.54366 14.0493 6.4991 13.6382 6.3288C13.2271 6.15851 12.8757 5.87012 12.6284 5.50011C12.3812 5.1301 12.2492 4.69508 12.2492 4.25007C12.2492 3.65334 12.4863 3.08104 12.9083 2.65908C13.3302 2.23713 13.9025 2.00007 14.4992 2.00007ZM3.99925 13.2501C3.55424 13.2501 3.11923 13.1181 2.74922 12.8709C2.37921 12.6236 2.09082 12.2722 1.92052 11.8611C1.75022 11.45 1.70567 10.9976 1.79248 10.5611C1.8793 10.1247 2.09359 9.72375 2.40826 9.40908C2.72293 9.09441 3.12384 8.88012 3.5603 8.79331C3.99675 8.70649 4.44915 8.75105 4.86029 8.92134C5.27142 9.09164 5.62282 9.38003 5.87006 9.75004C6.11729 10.1201 6.24925 10.5551 6.24925 11.0001C6.24925 11.5968 6.0122 12.1691 5.59024 12.5911C5.16828 13.013 4.59599 13.2501 3.99925 13.2501ZM14.4992 20.0001C14.0542 20.0001 13.6192 19.8681 13.2492 19.6209C12.8792 19.3736 12.5908 19.0222 12.4205 18.6111C12.2502 18.2 12.2057 17.7476 12.2925 17.3111C12.3793 16.8747 12.5936 16.4738 12.9083 16.1591C13.2229 15.8444 13.6238 15.6301 14.0603 15.5433C14.4968 15.4565 14.9492 15.501 15.3603 15.6713C15.7714 15.8416 16.1228 16.13 16.3701 16.5C16.6173 16.8701 16.7492 17.3051 16.7492 17.7501C16.7492 18.3468 16.5122 18.9191 16.0902 19.3411C15.6683 19.763 15.096 20.0001 14.4992 20.0001Z" fill="#1B1D1F" stroke="#1B1D1F" stroke-width="0.25" mask="url(#path-3-inside-1_1_2)"/>
</g>
</g>
<defs>
<filter id="filter0_d_1_2" x="-479" y="-57" width="557" height="306" filterUnits="userSpaceOnUse" color-interpolation-filters="sRGB">
<feFlood flood-opacity="0" result="BackgroundImageFix"/>
<feColorMatrix in="SourceAlpha" type="matrix" values="0 0 0 0 0 0 0 0 0 0 0 0 0 0 0 0 0 0 127 0" result="hardAlpha"/>
<feOffset/>
<feGaussianBlur stdDeviation="10"/>
<feComposite in2="hardAlpha" operator="out"/>
<feColorMatrix type="matrix" values="0 0 0 0 0 0 0 0 0 0 0 0 0 0 0 0 0 0 0.08 0"/>
<feBlend mode="normal" in2="BackgroundImageFix" result="effect1_dropShadow_1_2"/>
<feBlend mode="normal" in="SourceGraphic" in2="effect1_dropShadow_1_2" result="shape"/>
</filter>
<clipPath id="clip0_1_2">
<rect width="1920" height="960" fill="white" transform="translate(-1822 -137)"/>
</clipPath>
</defs>
</svg>
