<svg width="19" height="22" viewBox="0 0 19 22" xmlns="http://www.w3.org/2000/svg">
<path d="M14.4992 14.0001C13.9989 13.9999 13.5037 14.1001 13.0428 14.2948C12.5819 14.4895 12.1648 14.7747 11.8161 15.1335L7.49425 12.3557C7.83421 11.4839 7.83421 10.5162 7.49425 9.64445L11.8161 6.86664C12.4653 7.53162 13.3383 7.93187 14.2658 7.98979C15.1933 8.0477 16.1093 7.75915 16.8361 7.18009C17.563 6.60102 18.0489 5.77269 18.1998 4.85569C18.3506 3.93869 18.1555 2.99835 17.6525 2.21698C17.1494 1.43562 16.3741 0.868892 15.4768 0.626682C14.5796 0.384471 13.6245 0.484032 12.7965 0.906062C11.9685 1.32809 11.3268 2.04252 10.9956 2.91084C10.6645 3.77917 10.6676 4.73951 11.0042 5.6057L14.4992 14.0001ZM14.4992 14.0001C15.3002 13.9998 16.0801 14.2559 16.7249 14.731M14.4992 14.0001L16.7249 14.731M10.882 18.7339C10.6719 17.961 10.7147 17.1412 11.0042 16.3944L10.882 18.7339ZM10.882 18.7339C11.0921 19.5067 11.5441 20.192 12.1719 20.6894M10.882 18.7339L12.1719 20.6894M12.1719 20.6894C12.7997 21.1867 13.5702 21.47 14.3706 21.4978M12.1719 20.6894L14.3706 21.4978M14.3706 21.4978C15.171 21.5256 15.9593 21.2964 16.6201 20.8437M14.3706 21.4978L16.6201 20.8437M16.6201 20.8437C17.2808 20.3911 17.7792 19.7388 18.0424 18.9823M16.6201 20.8437L18.0424 18.9823M18.0424 18.9823C18.3056 18.2259 18.3197 17.4051 18.0826 16.64M18.0424 18.9823L18.0826 16.64M18.0826 16.64C17.8455 15.875 17.3697 15.206 16.7249 14.731M18.0826 16.64L16.7249 14.731M11.7823 15.1861L11.8253 15.2137L11.8609 15.1771C12.2038 14.8243 12.6139 14.5438 13.0671 14.3524C13.5203 14.161 14.0073 14.0624 14.4992 14.0626H14.4993C15.2868 14.0623 16.0538 14.3141 16.6879 14.7813C17.3219 15.2484 17.7898 15.9063 18.0229 16.6585C18.256 17.4108 18.2422 18.218 17.9834 18.9618C17.7246 19.7056 17.2344 20.347 16.5847 20.7922C15.935 21.2373 15.1599 21.4627 14.3728 21.4354C13.5857 21.408 12.828 21.1295 12.2107 20.6404C11.5934 20.1513 11.1489 19.4775 10.9423 18.7175C10.7357 17.9575 10.7778 17.1513 11.0625 16.417L11.081 16.3695L11.038 16.3419L6.71617 13.5641L6.67322 13.5365L6.6376 13.573C6.12584 14.0984 5.46902 14.4593 4.75111 14.6094C4.0332 14.7596 3.28682 14.6923 2.60737 14.4161C1.92792 14.1399 1.34628 13.6673 0.936799 13.0588C0.527316 12.4503 0.308594 11.7335 0.308594 11.0001C0.308594 10.2666 0.527316 9.54984 0.936799 8.94134C1.34628 8.33285 1.92792 7.86028 2.60737 7.58407C3.28682 7.30785 4.0332 7.24052 4.75111 7.3907C5.46902 7.54087 6.12584 7.90172 6.6376 8.42712L6.67322 8.46369L6.71617 8.43609L11.038 5.65827L11.081 5.63066L11.0625 5.58305C10.7314 4.73131 10.7284 3.78696 11.054 2.93312C11.3796 2.07927 12.0107 1.37674 12.8249 0.961746C13.6391 0.54675 14.5783 0.448848 15.4606 0.687021C16.3428 0.925195 17.1052 1.48248 17.5999 2.25082C18.0946 3.01916 18.2864 3.94383 18.1381 4.84554C17.9898 5.74726 17.5119 6.56179 16.7972 7.1312C16.0824 7.70062 15.1817 7.98436 14.2697 7.92741C13.3576 7.87046 12.4992 7.47688 11.8608 6.82298L11.8252 6.78649L11.7823 6.81406L7.46046 9.59187L7.41744 9.61952L7.43602 9.66716C7.77029 10.5243 7.77029 11.4758 7.43602 12.333L7.41744 12.3806L7.46046 12.4083L11.7823 15.1861ZM15.784 2.3273C15.4037 2.0732 14.9566 1.93757 14.4992 1.93757C13.8859 1.93757 13.2977 2.18121 12.8641 2.61489C12.4304 3.04857 12.1867 3.63676 12.1867 4.25007C12.1867 4.70744 12.3224 5.15454 12.5765 5.53483C12.8306 5.91512 13.1917 6.21152 13.6143 6.38655C14.0368 6.56157 14.5018 6.60737 14.9504 6.51814C15.399 6.42891 15.811 6.20867 16.1344 5.88526C16.4578 5.56185 16.6781 5.1498 16.7673 4.70122C16.8565 4.25264 16.8107 3.78767 16.6357 3.36512C16.4607 2.94256 16.1643 2.5814 15.784 2.3273ZM2.71449 12.9228C3.09478 13.1769 3.54188 13.3126 3.99925 13.3126C4.61256 13.3126 5.20076 13.0689 5.63443 12.6353C6.06811 12.2016 6.31175 11.6134 6.31175 11.0001C6.31175 10.5427 6.17612 10.0956 5.92202 9.71532C5.66792 9.33503 5.30676 9.03863 4.8842 8.8636C4.46165 8.68857 3.99668 8.64278 3.5481 8.73201C3.09952 8.82124 2.68747 9.04148 2.36406 9.36489C2.04066 9.6883 1.82041 10.1003 1.73118 10.5489C1.64195 10.9975 1.68775 11.4625 1.86278 11.885C2.03781 12.3076 2.3342 12.6687 2.71449 12.9228ZM13.2145 19.6728C13.5948 19.9269 14.0419 20.0626 14.4992 20.0626C15.1126 20.0626 15.7008 19.8189 16.1344 19.3853C16.5681 18.9516 16.8117 18.3634 16.8117 17.7501C16.8117 17.2927 16.6761 16.8456 16.422 16.4653C16.1679 16.085 15.8068 15.7886 15.3842 15.6136C14.9617 15.4386 14.4967 15.3928 14.0481 15.482C13.5995 15.5712 13.1875 15.7915 12.8641 16.1149C12.5407 16.4383 12.3204 16.8503 12.2312 17.2989C12.142 17.7475 12.1877 18.2125 12.3628 18.635C12.5378 19.0576 12.8342 19.4187 13.2145 19.6728Z" fill="#1B1D1F" stroke="#1B1D1F" stroke-width="0.125"/>
</svg>
