<svg width="24" height="24" viewBox="0 0 24 24" fill="none" xmlns="http://www.w3.org/2000/svg">
<path d="M19.8183 9.06263H19.979L19.8605 8.95405L17.3687 6.6713L17.3682 6.6708L17.3462 6.64968C17.3461 6.64953 17.3459 6.64937 17.3457 6.64922C16.2947 5.59875 14.9574 4.8812 13.501 4.5862C12.0444 4.29116 10.5331 4.43187 9.15592 4.99075C7.77877 5.54963 6.59683 6.50191 5.75775 7.72863C4.91867 8.95534 4.45964 10.4021 4.43802 11.8882C4.4164 13.3742 4.83314 14.8337 5.63618 16.0843C6.43921 17.335 7.59295 18.3212 8.95325 18.9199C10.3136 19.5186 11.8201 19.7033 13.2847 19.4507C14.7494 19.1982 16.1071 18.5197 17.1883 17.5L17.1884 17.4999C17.3209 17.3746 17.4979 17.307 17.6802 17.3121C17.8626 17.3171 18.0355 17.3944 18.1608 17.527C18.2862 17.6595 18.3538 17.8364 18.3487 18.0188C18.3436 18.2012 18.2663 18.3741 18.1338 18.4994L18.1337 18.4995C16.478 20.0697 14.2816 20.9428 11.9997 20.9376H11.9995H11.8762C10.4126 20.9175 8.97632 20.5382 7.69359 19.8331C6.41075 19.1279 5.32077 18.1184 4.51944 16.8933C3.71812 15.6682 3.22999 14.265 3.09795 12.8071C2.96592 11.3491 3.19402 9.88111 3.76222 8.53198C4.33042 7.18285 5.22131 5.99394 6.35659 5.06975C7.49188 4.14557 8.83679 3.51439 10.2731 3.2317C11.7095 2.94901 13.1933 3.02347 14.5941 3.44852C15.9949 3.87358 17.2699 4.63622 18.307 5.66941L18.3069 5.66945L18.3089 5.67128L20.9574 8.09003L21.062 8.18561V8.04388V5.25013C21.062 5.0678 21.1345 4.89293 21.2634 4.764C21.3923 4.63507 21.5672 4.56263 21.7495 4.56263C21.9319 4.56263 22.1067 4.63507 22.2357 4.764C22.3646 4.89293 22.437 5.0678 22.437 5.25013V9.75013C22.437 9.93247 22.3646 10.1073 22.2357 10.2363C22.1067 10.3652 21.9319 10.4376 21.7495 10.4376H17.2495C17.0672 10.4376 16.8923 10.3652 16.7634 10.2363C16.6345 10.1073 16.562 9.93247 16.562 9.75013C16.562 9.5678 16.6345 9.39293 16.7634 9.264C16.8923 9.13507 17.0672 9.06263 17.2495 9.06263H19.8183Z" fill="#1B1D1F" stroke="#1B1D1F" stroke-width="0.125"/>
</svg>
