<svg width="26" height="26" viewBox="0 0 33 32" fill="none" xmlns="http://www.w3.org/2000/svg">
<path d="M16.5 3C13.9288 3 11.4154 3.76244 9.27759 5.1909C7.13975 6.61935 5.47351 8.64968 4.48957 11.0251C3.50563 13.4006 3.24819 16.0144 3.7498 18.5362C4.25141 21.0579 5.48953 23.3743 7.30762 25.1924C9.1257 27.0105 11.4421 28.2486 13.9638 28.7502C16.4856 29.2518 19.0995 28.9944 21.4749 28.0104C23.8503 27.0265 25.8807 25.3603 27.3091 23.2224C28.7376 21.0846 29.5 18.5712 29.5 16C29.4964 12.5533 28.1256 9.24882 25.6884 6.81163C23.2512 4.37445 19.9467 3.00364 16.5 3ZM22.2075 13.7075L15.2075 20.7075C15.1146 20.8005 15.0043 20.8742 14.8829 20.9246C14.7615 20.9749 14.6314 21.0008 14.5 21.0008C14.3686 21.0008 14.2385 20.9749 14.1171 20.9246C13.9957 20.8742 13.8854 20.8005 13.7925 20.7075L10.7925 17.7075C10.6049 17.5199 10.4994 17.2654 10.4994 17C10.4994 16.7346 10.6049 16.4801 10.7925 16.2925C10.9801 16.1049 11.2346 15.9994 11.5 15.9994C11.7654 15.9994 12.0199 16.1049 12.2075 16.2925L14.5 18.5863L20.7925 12.2925C20.8854 12.1996 20.9957 12.1259 21.1171 12.0756C21.2385 12.0253 21.3686 11.9994 21.5 11.9994C21.6314 11.9994 21.7615 12.0253 21.8829 12.0756C22.0043 12.1259 22.1146 12.1996 22.2075 12.2925C22.3004 12.3854 22.3741 12.4957 22.4244 12.6171C22.4747 12.7385 22.5006 12.8686 22.5006 13C22.5006 13.1314 22.4747 13.2615 22.4244 13.3829C22.3741 13.5043 22.3004 13.6146 22.2075 13.7075Z" fill="#0ABE7D"/>
</svg>
