<svg viewBox="0 0 140 42" fill="none" xmlns="http://www.w3.org/2000/svg">
<path fill-rule="evenodd" clip-rule="evenodd" d="M18.7235 4.49538C10.8365 4.49538 4.44285 10.9646 4.44285 18.9448C4.44285 22.9734 6.06931 26.6135 8.69964 29.2365C9.57344 30.1079 9.58365 31.531 8.72245 32.4152C7.86125 33.2993 6.45475 33.3096 5.58096 32.4382C2.13827 29.0051 0 24.2255 0 18.9448C0 8.48188 8.38278 0 18.7235 0C29.0641 0 37.4469 8.48188 37.4469 18.9448C37.4469 27.8408 31.389 35.2996 23.2225 37.3386C22.0313 37.636 20.8275 36.9001 20.5336 35.6949C20.2396 34.4896 20.967 33.2715 22.1581 32.9741C28.3872 31.4189 33.0041 25.7246 33.0041 18.9448C33.0041 10.9646 26.6104 4.49538 18.7235 4.49538Z" fill="#474C51"/>
<path fill-rule="evenodd" clip-rule="evenodd" d="M18.7235 20.5503C19.9503 20.5503 20.9449 21.5566 20.9449 22.798C20.9449 33.2609 12.5621 41.7428 2.22143 41.7428C0.994567 41.7428 0 40.7365 0 39.4951C0 38.2537 0.994567 37.2474 2.22143 37.2474C10.1084 37.2474 16.502 30.7782 16.502 22.798C16.502 21.5566 17.4966 20.5503 18.7235 20.5503Z" fill="#474C51"/>
<path d="M46.1251 32.8169C46.4848 32.8169 46.8762 32.7848 47.2993 32.7206C47.7436 32.635 48.0715 32.5279 48.2831 32.3995V29.8307L45.9982 30.0234C45.4058 30.0662 44.9192 30.1946 44.5384 30.4087C44.1576 30.6228 43.9672 30.9438 43.9672 31.372C43.9672 31.8001 44.1259 32.1533 44.4432 32.4316C44.7817 32.6885 45.3423 32.8169 46.1251 32.8169ZM45.8713 20.1978C47.0137 20.1978 48.0504 20.3155 48.9813 20.551C49.9333 20.7864 50.7372 21.1503 51.3931 21.6427C52.0701 22.1136 52.5884 22.7237 52.9481 23.473C53.3078 24.2008 53.4876 25.0677 53.4876 26.0739V33.2665C53.4876 33.823 53.3289 34.2833 53.0116 34.6472C52.7154 34.9897 52.3557 35.2894 51.9326 35.5463C50.5574 36.3811 48.6216 36.7985 46.1251 36.7985C45.0038 36.7985 43.9883 36.6915 43.0786 36.4774C42.19 36.2634 41.4178 35.9423 40.762 35.5142C40.1273 35.086 39.6301 34.5402 39.2705 33.8765C38.9319 33.2129 38.7627 32.4423 38.7627 31.5646C38.7627 30.0876 39.1964 28.953 40.0638 28.161C40.9312 27.369 42.2747 26.8766 44.0941 26.6839L48.2514 26.2344V26.0096C48.2514 25.3888 47.9763 24.95 47.4263 24.6931C46.8973 24.4148 46.1251 24.2757 45.1096 24.2757C44.3057 24.2757 43.5229 24.3613 42.7613 24.5326C41.9996 24.7038 41.312 24.9179 40.6985 25.1748C40.4235 24.9821 40.1908 24.6931 40.0003 24.3078C39.8099 23.9011 39.7147 23.4837 39.7147 23.0555C39.7147 22.499 39.8417 22.0601 40.0956 21.739C40.3706 21.3965 40.7831 21.1075 41.3332 20.8721C41.9467 20.6366 42.6661 20.4653 43.4912 20.3583C44.3374 20.2513 45.1308 20.1978 45.8713 20.1978Z" fill="#474C51"/>
<path d="M65.3598 35.8031C65.0636 36.06 64.6616 36.2634 64.1539 36.4132C63.6461 36.5845 63.0432 36.6701 62.345 36.6701C61.4776 36.6701 60.7266 36.5417 60.0919 36.2848C59.4572 36.0493 59.034 35.7068 58.8225 35.2573C58.5898 34.7435 58.3147 33.9301 57.9974 32.8169C57.7012 31.7038 57.405 30.4836 57.1088 29.1564C56.8126 27.8292 56.527 26.4806 56.252 25.1106C55.9981 23.7405 55.7971 22.5311 55.649 21.4821C55.9452 21.1825 56.3366 20.9256 56.8232 20.7115C57.3309 20.476 57.881 20.3583 58.4734 20.3583C59.2139 20.3583 59.8168 20.5296 60.2823 20.8721C60.7689 21.1932 61.0651 21.7604 61.1708 22.5739C61.3824 24.2008 61.5622 25.5494 61.7103 26.6197C61.8584 27.6686 61.9748 28.5356 62.0594 29.2206C62.1652 29.8842 62.2392 30.398 62.2816 30.7619C62.345 31.1044 62.3979 31.3827 62.4402 31.5968H62.5672C62.6306 31.2542 62.7364 30.7619 62.8845 30.1197C63.0538 29.4561 63.2442 28.7069 63.4557 27.872C63.6673 27.0372 63.8894 26.1381 64.1222 25.1748C64.3549 24.1901 64.5876 23.2161 64.8203 22.2528C65.2435 22.0173 65.656 21.8354 66.058 21.7069C66.4811 21.5785 66.9994 21.5143 67.613 21.5143C68.3535 21.5143 68.9881 21.632 69.5171 21.8675C70.046 22.1029 70.3845 22.4669 70.5326 22.9592C70.7864 23.9011 71.0297 24.8216 71.2625 25.7206C71.4952 26.5983 71.7067 27.4225 71.8972 28.1931C72.0876 28.9423 72.2568 29.6166 72.4049 30.216C72.553 30.794 72.6588 31.2542 72.7223 31.5968H72.8809C73.1137 29.9484 73.3358 28.2359 73.5474 26.4592C73.7801 24.6824 73.9916 22.8736 74.1821 21.0326C74.5629 20.7971 74.9648 20.6259 75.388 20.5189C75.8111 20.4118 76.2342 20.3583 76.6574 20.3583C77.3978 20.3583 78.0114 20.5189 78.498 20.84C78.9846 21.161 79.2279 21.7176 79.2279 22.5097C79.2279 22.8522 79.175 23.3659 79.0692 24.0509C78.9634 24.7359 78.8259 25.5066 78.6566 26.3628C78.4874 27.2191 78.2864 28.1182 78.0537 29.0601C77.8421 30.002 77.62 30.9117 77.3873 31.7894C77.1757 32.6671 76.9641 33.4591 76.7526 34.1655C76.5621 34.872 76.3929 35.4178 76.2448 35.8031C75.9486 36.06 75.4938 36.2634 74.8802 36.4132C74.2667 36.5845 73.6108 36.6701 72.9127 36.6701C71.1355 36.6701 70.0883 36.2206 69.7709 35.3215C69.644 34.9362 69.4853 34.4545 69.2949 33.8765C69.1045 33.2772 68.9035 32.6243 68.692 31.9178C68.4804 31.2114 68.2794 30.4836 68.089 29.7344C67.8986 28.9637 67.7399 28.2252 67.613 27.5188C67.4649 28.268 67.285 29.0494 67.0735 29.8628C66.8619 30.6549 66.6398 31.4362 66.4071 32.2068C66.1955 32.9561 65.9945 33.6518 65.8041 34.294C65.6137 34.9148 65.4656 35.4178 65.3598 35.8031Z" fill="#474C51"/>
<path d="M88.7488 20.1978C90.0181 20.1978 91.1923 20.369 92.2713 20.7115C93.3714 21.0326 94.3129 21.5357 95.0957 22.2207C95.8785 22.9057 96.492 23.7727 96.9363 24.8216C97.3806 25.8491 97.6027 27.08 97.6027 28.5142C97.6027 29.8842 97.4123 31.083 97.0315 32.1105C96.6507 33.138 96.1112 34.005 95.413 34.7114C94.7149 35.3964 93.8686 35.9102 92.8743 36.2527C91.9011 36.5952 90.8115 36.7664 89.6056 36.7664C88.6959 36.7664 87.8496 36.6273 87.0668 36.349V41.6792C86.8553 41.7435 86.5168 41.8077 86.0513 41.8719C85.5859 41.9575 85.1098 42.0003 84.6232 42.0003C84.1578 42.0003 83.7347 41.9682 83.3539 41.904C82.9942 41.8398 82.6874 41.7113 82.4336 41.5187C82.1797 41.326 81.9893 41.0585 81.8623 40.7159C81.7354 40.3948 81.6719 39.9667 81.6719 39.4316V24.0188C81.6719 23.4408 81.7883 22.9699 82.021 22.606C82.2749 22.2421 82.6134 21.9103 83.0365 21.6106C83.6924 21.1825 84.5069 20.84 85.4801 20.5831C86.4533 20.3262 87.5428 20.1978 88.7488 20.1978ZM88.8122 32.4637C90.9913 32.4637 92.0809 31.1472 92.0809 28.5142C92.0809 27.1442 91.8059 26.1274 91.2558 25.4638C90.7269 24.8002 89.9547 24.4684 88.9392 24.4684C88.5372 24.4684 88.1775 24.5219 87.8602 24.6289C87.5428 24.7145 87.2678 24.8216 87.0351 24.95V32.0142C87.289 32.1426 87.564 32.2497 87.8602 32.3353C88.1564 32.4209 88.4737 32.4637 88.8122 32.4637Z" fill="#474C51"/>
<path d="M106.898 32.8169C107.258 32.8169 107.649 32.7848 108.072 32.7206C108.517 32.635 108.845 32.5279 109.056 32.3995V29.8307L106.771 30.0234C106.179 30.0662 105.692 30.1946 105.312 30.4087C104.931 30.6228 104.74 30.9438 104.74 31.372C104.74 31.8001 104.899 32.1533 105.216 32.4316C105.555 32.6885 106.115 32.8169 106.898 32.8169ZM106.644 20.1978C107.787 20.1978 108.823 20.3155 109.754 20.551C110.706 20.7864 111.51 21.1503 112.166 21.6427C112.843 22.1136 113.362 22.7237 113.721 23.473C114.081 24.2008 114.261 25.0677 114.261 26.0739V33.2665C114.261 33.823 114.102 34.2833 113.785 34.6472C113.488 34.9897 113.129 35.2894 112.706 35.5463C111.331 36.3811 109.395 36.7985 106.898 36.7985C105.777 36.7985 104.761 36.6915 103.852 36.4774C102.963 36.2634 102.191 35.9423 101.535 35.5142C100.9 35.086 100.403 34.5402 100.044 33.8765C99.7051 33.2129 99.5358 32.4423 99.5358 31.5646C99.5358 30.0876 99.9695 28.953 100.837 28.161C101.704 27.369 103.048 26.8766 104.867 26.6839L109.024 26.2344V26.0096C109.024 25.3888 108.749 24.95 108.199 24.6931C107.67 24.4148 106.898 24.2757 105.883 24.2757C105.079 24.2757 104.296 24.3613 103.534 24.5326C102.773 24.7038 102.085 24.9179 101.472 25.1748C101.197 24.9821 100.964 24.6931 100.773 24.3078C100.583 23.9011 100.488 23.4837 100.488 23.0555C100.488 22.499 100.615 22.0601 100.869 21.739C101.144 21.3965 101.556 21.1075 102.106 20.8721C102.72 20.6366 103.439 20.4653 104.264 20.3583C105.111 20.2513 105.904 20.1978 106.644 20.1978Z" fill="#474C51"/>
<path d="M126.133 35.8031C125.837 36.06 125.435 36.2634 124.927 36.4132C124.419 36.5845 123.816 36.6701 123.118 36.6701C122.251 36.6701 121.5 36.5417 120.865 36.2848C120.23 36.0493 119.807 35.7068 119.596 35.2573C119.363 34.7435 119.088 33.9301 118.77 32.8169C118.474 31.7038 118.178 30.4836 117.882 29.1564C117.586 27.8292 117.3 26.4806 117.025 25.1106C116.771 23.7405 116.57 22.5311 116.422 21.4821C116.718 21.1825 117.11 20.9256 117.596 20.7115C118.104 20.476 118.654 20.3583 119.247 20.3583C119.987 20.3583 120.59 20.5296 121.055 20.8721C121.542 21.1932 121.838 21.7604 121.944 22.5739C122.156 24.2008 122.335 25.5494 122.483 26.6197C122.632 27.6686 122.748 28.5356 122.833 29.2206C122.938 29.8842 123.012 30.398 123.055 30.7619C123.118 31.1044 123.171 31.3827 123.213 31.5968H123.34C123.404 31.2542 123.51 30.7619 123.658 30.1197C123.827 29.4561 124.017 28.7069 124.229 27.872C124.44 27.0372 124.663 26.1381 124.895 25.1748C125.128 24.1901 125.361 23.2161 125.593 22.2528C126.017 22.0173 126.429 21.8354 126.831 21.7069C127.254 21.5785 127.773 21.5143 128.386 21.5143C129.127 21.5143 129.761 21.632 130.29 21.8675C130.819 22.1029 131.158 22.4669 131.306 22.9592C131.56 23.9011 131.803 24.8216 132.036 25.7206C132.268 26.5983 132.48 27.4225 132.67 28.1931C132.861 28.9423 133.03 29.6166 133.178 30.216C133.326 30.794 133.432 31.2542 133.495 31.5968H133.654C133.887 29.9484 134.109 28.2359 134.32 26.4592C134.553 24.6824 134.765 22.8736 134.955 21.0326C135.336 20.7971 135.738 20.6259 136.161 20.5189C136.584 20.4118 137.007 20.3583 137.43 20.3583C138.171 20.3583 138.784 20.5189 139.271 20.84C139.758 21.161 140.001 21.7176 140.001 22.5097C140.001 22.8522 139.948 23.3659 139.842 24.0509C139.737 24.7359 139.599 25.5066 139.43 26.3628C139.261 27.2191 139.06 28.1182 138.827 29.0601C138.615 30.002 138.393 30.9117 138.16 31.7894C137.949 32.6671 137.737 33.4591 137.526 34.1655C137.335 34.872 137.166 35.4178 137.018 35.8031C136.722 36.06 136.267 36.2634 135.653 36.4132C135.04 36.5845 134.384 36.6701 133.686 36.6701C131.909 36.6701 130.861 36.2206 130.544 35.3215C130.417 34.9362 130.258 34.4545 130.068 33.8765C129.878 33.2772 129.677 32.6243 129.465 31.9178C129.254 31.2114 129.053 30.4836 128.862 29.7344C128.672 28.9637 128.513 28.2252 128.386 27.5188C128.238 28.268 128.058 29.0494 127.847 29.8628C127.635 30.6549 127.413 31.4362 127.18 32.2068C126.969 32.9561 126.768 33.6518 126.577 34.294C126.387 34.9148 126.239 35.4178 126.133 35.8031Z" fill="#474C51"/>
</svg>
