<svg  viewBox="0 0 150 150" fill="none" xmlns="http://www.w3.org/2000/svg">
<path d="M134.567 127.934L105.229 98.6017C113.732 88.3929 117.973 75.2989 117.068 62.0435C116.163 48.7881 110.182 36.3918 100.37 27.4335C90.5583 18.4752 77.6704 13.6446 64.3876 13.9464C51.1047 14.2483 38.4496 19.6595 29.0548 29.0543C19.66 38.4491 14.2488 51.1042 13.9469 64.3871C13.6451 77.6699 18.4757 90.5578 27.434 100.37C36.3923 110.182 48.7886 116.162 62.044 117.067C75.2994 117.972 88.3934 113.732 98.6022 105.229L127.934 134.567C128.37 135.002 128.887 135.348 129.456 135.583C130.025 135.819 130.635 135.94 131.251 135.94C131.867 135.94 132.476 135.819 133.045 135.583C133.614 135.348 134.132 135.002 134.567 134.567C135.003 134.131 135.348 133.614 135.584 133.045C135.819 132.476 135.941 131.866 135.941 131.25C135.941 130.634 135.819 130.024 135.584 129.455C135.348 128.886 135.003 128.369 134.567 127.934ZM23.4381 65.6251C23.4381 57.2812 25.9124 49.1247 30.548 42.187C35.1836 35.2493 41.7724 29.842 49.4811 26.6489C57.1899 23.4559 65.6724 22.6204 73.856 24.2482C82.0396 25.8761 89.5566 29.894 95.4567 35.794C101.357 41.6941 105.375 49.2112 107.002 57.3947C108.63 65.5783 107.795 74.0608 104.602 81.7696C101.409 89.4783 96.0014 96.0671 89.0637 100.703C82.126 105.338 73.9695 107.813 65.6256 107.813C54.4406 107.8 43.7172 103.351 35.8082 95.4425C27.8992 87.5335 23.4505 76.8101 23.4381 65.6251Z" fill="#CBCDD2"/>
<rect x="48" y="55" width="5" height="10" rx="2.5" fill="#CBCDD2"/>
<rect x="76" y="55" width="5" height="10" rx="2.5" fill="#CBCDD2"/>
<rect x="76" y="75" width="5" height="22" rx="2.5" transform="rotate(90 76 75)" fill="#CBCDD2"/>
</svg>
