<svg viewBox="0 0 32 32" fill="none" xmlns="http://www.w3.org/2000/svg">
<path d="M28.8653 5.52564L28.863 5.53387V5.54242V5.54244V5.54245V5.54247V5.54249V5.54251V5.54252V5.54254V5.54255V5.54257V5.54259V5.54261V5.54263V5.54265V5.54267V5.5427V5.54272V5.54275V5.54277V5.5428V5.54283V5.54284V5.54286V5.54287V5.54289V5.5429V5.54292V5.54293V5.54295V5.54297V5.54298V5.543V5.54302V5.54304V5.54305V5.54307V5.54309V5.54311V5.54313V5.54314V5.54316V5.54318V5.5432V5.54322V5.54324V5.54326V5.54328V5.5433V5.54332V5.54334V5.54337V5.54339V5.54341V5.54343V5.54345V5.54348V5.5435V5.54352V5.54354V5.54357V5.54359V5.54361V5.54364V5.54366V5.54368V5.54371V5.54373V5.54376V5.54378V5.54381V5.54383V5.54386V5.54388V5.54391V5.54394V5.54396V5.54399V5.54402V5.54404V5.54407V5.5441V5.54413V5.54415V5.54418V5.54421V5.54424V5.54427V5.54429V5.54432V5.54435V5.54438V5.54441V5.54444V5.54447V5.5445V5.54453V5.54456V5.54459V5.54462V5.54465V5.54468V5.54471V5.54474V5.54478V5.54481V5.54484V5.54487V5.5449V5.54493V5.54497V5.545V5.54503V5.54507V5.5451V5.54513V5.54517V5.5452V5.54523V5.54527V5.5453V5.54533V5.54537V5.5454V5.54544V5.54547V5.54551V5.54554V5.54558V5.54561V5.54565V5.54569V5.54572V5.54576V5.54579V5.54583V5.54587V5.5459V5.54594V5.54598V5.54601V5.54605V5.54609V5.54613V5.54616V5.5462V5.54624V5.54628V5.54631V5.54635V5.54639V5.54643V5.54647V5.54651V5.54655V5.54659V5.54662V5.54666V5.5467V5.54674V5.54678V5.54682V5.54686V5.5469V5.54694V5.54698V5.54702V5.54706V5.5471V5.54714V5.54719V5.54723V5.54727V5.54731V5.54735V5.54739V5.54743V5.54747V5.54752V5.54756V5.5476V5.54764V5.54768V5.54773V5.54777V5.54781V5.54785V5.5479V5.54794V5.54798V5.54803V5.54807V5.54811V5.54816V5.5482V5.54824V5.54829V5.54833V5.54837V5.54842V5.54846V5.54851V5.54855V5.54859V5.54864V5.54868V5.54873V5.54877V5.54882V5.54886V5.54891V5.54895V5.549V5.54904V5.54909V5.54913V5.54918V5.54922V5.54927V5.54931V5.54936V5.5494V5.54945V5.5495V5.54954V5.54959V5.54963V5.54968V5.54973V5.54977V5.54982V5.54986V5.54991V5.54996V5.55V5.55005V5.5501V5.55014V5.55019V5.55024V5.55028V5.55033V5.55038V5.55043V5.55047V5.55052V5.55057V5.55061V5.55066V5.55071V5.55076V5.5508V5.55085V5.5509V5.55095V5.55099V5.55104V5.55109V5.55114V5.55119V5.55123V5.55128V5.55133V5.55138V5.55142V5.55147V5.55152V5.55157V5.55162V5.55167V5.55171V5.55176V5.55181V5.55186V5.55191V5.55196V5.552L21.5907 29.5355L21.5903 29.5367C21.4837 29.9141 21.2642 30.2499 20.9612 30.4989C20.6582 30.748 20.2864 30.8985 19.8954 30.9301L19.8951 30.9302C19.8394 30.935 19.7837 30.9374 19.728 30.9374H19.7278C19.3615 30.9386 19.0024 30.8349 18.6931 30.6386C18.3838 30.4423 18.1371 30.1617 17.9821 29.8297L17.982 29.8294L13.5182 20.4057C13.4797 20.3241 13.4673 20.2326 13.4827 20.1437C13.4982 20.0548 13.5408 19.9729 13.6046 19.9091L13.6047 19.9091L20.7622 12.7504L20.7622 12.7504L20.7633 12.7492C20.9541 12.5483 21.059 12.2809 21.0554 12.0038C21.0519 11.7267 20.9402 11.462 20.7443 11.2661C20.5484 11.0702 20.2837 10.9585 20.0066 10.955C19.7295 10.9514 19.4621 11.0563 19.2612 11.2471L19.2601 11.2482L12.0913 18.4057L12.0913 18.4058C12.0275 18.4696 11.9456 18.5122 11.8567 18.5277C11.7678 18.5431 11.6763 18.5307 11.5947 18.4922L2.21974 14.0509L2.21901 14.0506C1.86206 13.8871 1.56167 13.6213 1.35587 13.2869C1.15013 12.9526 1.04818 12.5649 1.06292 12.1726C1.08271 11.7699 1.22855 11.3835 1.47984 11.0682C1.7312 10.7527 2.07535 10.5243 2.46365 10.4151L2.46365 10.4151L2.46487 10.4147L26.4485 3.14242H26.458H26.4666L26.4749 3.14009C26.8058 3.04711 27.1555 3.04386 27.4881 3.13064C27.8207 3.21743 28.1243 3.39115 28.3676 3.63396C28.6109 3.87678 28.7852 4.17995 28.8727 4.51238C28.9601 4.84481 28.9576 5.19452 28.8653 5.52564Z" fill="current" stroke="#0ABE7D" stroke-width="0.125"/>
</svg>
