<svg viewBox="0 0 32 32" fill="none" xmlns="http://www.w3.org/2000/svg">
<path d="M16 27.0625H16.0001C18.933 27.0592 21.7448 25.8926 23.8187 23.8187C25.8926 21.7448 27.0592 18.933 27.0625 16.0001V16C27.0625 13.812 26.4137 11.6732 25.1981 9.854C23.9826 8.03479 22.2548 6.61688 20.2334 5.77958C18.212 4.94229 15.9877 4.72321 13.8418 5.15006C11.6959 5.57691 9.72476 6.63051 8.17764 8.17763C6.63052 9.72475 5.57692 11.6959 5.15007 13.8418C4.72322 15.9877 4.94229 18.212 5.77959 20.2334C6.61688 22.2548 8.03479 23.9826 9.85401 25.1981C11.6732 26.4137 13.812 27.0625 16 27.0625ZM17 16.9375H16.9375V17V21C16.9375 21.2486 16.8387 21.4871 16.6629 21.6629C16.4871 21.8387 16.2486 21.9375 16 21.9375C15.7514 21.9375 15.5129 21.8387 15.3371 21.6629C15.1613 21.4871 15.0625 21.2486 15.0625 21V17V16.9375H15H11C10.7514 16.9375 10.5129 16.8387 10.3371 16.6629C10.1613 16.4871 10.0625 16.2486 10.0625 16C10.0625 15.7514 10.1613 15.5129 10.3371 15.3371C10.5129 15.1613 10.7514 15.0625 11 15.0625H15H15.0625V15V11C15.0625 10.7514 15.1613 10.5129 15.3371 10.3371C15.5129 10.1613 15.7514 10.0625 16 10.0625C16.2486 10.0625 16.4871 10.1613 16.6629 10.3371C16.8387 10.5129 16.9375 10.7514 16.9375 11V15V15.0625H17H21C21.2486 15.0625 21.4871 15.1613 21.6629 15.3371C21.8387 15.5129 21.9375 15.7514 21.9375 16C21.9375 16.2486 21.8387 16.4871 21.6629 16.6629C21.4871 16.8387 21.2486 16.9375 21 16.9375H17ZM8.81232 5.24286C10.9399 3.82128 13.4412 3.06251 16 3.0625C19.4301 3.06613 22.7187 4.43035 25.1442 6.85583C27.5697 9.28131 28.9339 12.5699 28.9375 16.0001C28.9375 18.5588 28.1787 21.0601 26.7571 23.1877C25.3356 25.3152 23.315 26.9735 20.951 27.9527C18.587 28.9319 15.9857 29.1881 13.476 28.6889C10.9664 28.1897 8.66115 26.9575 6.85181 25.1482C5.04247 23.3389 3.81029 21.0336 3.3111 18.524C2.8119 16.0144 3.06811 13.4131 4.04731 11.049C5.02652 8.68501 6.68475 6.66445 8.81232 5.24286Z" fill="#474C51" stroke="#474C51" stroke-width="0.125"/>
</svg>
