<svg viewBox="0 0 32 32" fill="none" xmlns="http://www.w3.org/2000/svg">
<path d="M22.0003 20C21.3332 19.9998 20.6729 20.1334 20.0584 20.393C19.4439 20.6526 18.8877 21.0328 18.4228 21.5112L12.6603 17.8075C13.1136 16.6451 13.1136 15.3548 12.6603 14.1925L18.4228 10.4887C19.2884 11.3754 20.4523 11.909 21.689 11.9863C22.9257 12.0635 24.147 11.6787 25.1161 10.9067C26.0853 10.1346 26.7332 9.03013 26.9343 7.80746C27.1354 6.58479 26.8754 5.33101 26.2046 4.28919C25.5338 3.24737 24.5 2.49173 23.3038 2.16879C22.1075 1.84584 20.8339 1.97859 19.73 2.54129C18.626 3.104 17.7703 4.05658 17.3288 5.21434C16.8873 6.3721 16.8914 7.65256 17.3403 8.80748L11.5778 12.5112C10.8839 11.7988 9.99328 11.3095 9.01985 11.1059C8.04641 10.9023 7.03437 10.9936 6.11308 11.3681C5.1918 11.7426 4.40313 12.3834 3.8479 13.2085C3.29267 14.0336 2.99609 15.0055 2.99609 16C2.99609 16.9945 3.29267 17.9664 3.8479 18.7915C4.40313 19.6166 5.1918 20.2573 6.11308 20.6319C7.03437 21.0064 8.04641 21.0977 9.01985 20.894C9.99328 20.6904 10.8839 20.2011 11.5778 19.4887L17.3403 23.1925C16.9543 24.1881 16.8971 25.2812 17.1773 26.3117C17.4574 27.3422 18.0602 28.2559 18.8972 28.919C19.7342 29.5822 20.7615 29.9599 21.8288 29.997C22.896 30.034 23.9471 29.7284 24.828 29.1248C25.709 28.5213 26.3736 27.6516 26.7245 26.643C27.0754 25.6344 27.0942 24.54 26.7781 23.5199C26.462 22.4999 25.8276 21.6079 24.9679 20.9745C24.1081 20.3411 23.0682 19.9996 22.0003 20ZM22.0003 3.99998C22.5936 3.99998 23.1737 4.17592 23.667 4.50557C24.1604 4.83521 24.5449 5.30375 24.7719 5.85193C24.999 6.4001 25.0584 7.0033 24.9427 7.58525C24.8269 8.16719 24.5412 8.70174 24.1216 9.1213C23.7021 9.54085 23.1675 9.82658 22.5856 9.94233C22.0036 10.0581 21.4004 9.99868 20.8523 9.77161C20.3041 9.54455 19.8355 9.16003 19.5059 8.66669C19.1762 8.17334 19.0003 7.59332 19.0003 6.99998C19.0003 6.20433 19.3164 5.44126 19.879 4.87866C20.4416 4.31605 21.2047 3.99998 22.0003 3.99998ZM8.0003 19C7.40696 19 6.82694 18.824 6.33359 18.4944C5.84024 18.1647 5.45573 17.6962 5.22866 17.148C5.0016 16.5998 4.94219 15.9966 5.05795 15.4147C5.1737 14.8328 5.45942 14.2982 5.87898 13.8787C6.29854 13.4591 6.83309 13.1734 7.41503 13.0576C7.99697 12.9419 8.60017 13.0013 9.14835 13.2283C9.69653 13.4554 10.1651 13.8399 10.4947 14.3333C10.8244 14.8266 11.0003 15.4066 11.0003 16C11.0003 16.7956 10.6842 17.5587 10.1216 18.1213C9.55901 18.6839 8.79595 19 8.0003 19ZM22.0003 28C21.407 28 20.8269 27.824 20.3336 27.4944C19.8402 27.1647 19.4557 26.6962 19.2287 26.148C19.0016 25.5998 18.9422 24.9966 19.0579 24.4147C19.1737 23.8328 19.4594 23.2982 19.879 22.8787C20.2985 22.4591 20.8331 22.1734 21.415 22.0576C21.997 21.9419 22.6002 22.0013 23.1484 22.2283C23.6965 22.4554 24.1651 22.8399 24.4947 23.3333C24.8244 23.8266 25.0003 24.4066 25.0003 25C25.0003 25.7956 24.6842 26.5587 24.1216 27.1213C23.559 27.6839 22.7959 28 22.0003 28Z" fill="black"/>
</svg>
