<svg viewBox="0 0 28 28" fill="none" xmlns="http://www.w3.org/2000/svg">
<path d="M4.66699 13.9999C4.66699 14.3093 4.78991 14.6061 5.0087 14.8249C5.22749 15.0437 5.52424 15.1666 5.83366 15.1666C6.14308 15.1666 6.43982 15.0437 6.65862 14.8249C6.87741 14.6061 7.00033 14.3093 7.00033 13.9999C7.00033 13.6905 6.87741 13.3938 6.65862 13.175C6.43982 12.9562 6.14308 12.8333 5.83366 12.8333C5.52424 12.8333 5.22749 12.9562 5.0087 13.175C4.78991 13.3938 4.66699 13.6905 4.66699 13.9999ZM12.8337 13.9999C12.8337 14.3093 12.9566 14.6061 13.1754 14.8249C13.3942 15.0437 13.6909 15.1666 14.0003 15.1666C14.3097 15.1666 14.6065 15.0437 14.8253 14.8249C15.0441 14.6061 15.167 14.3093 15.167 13.9999C15.167 13.6905 15.0441 13.3938 14.8253 13.175C14.6065 12.9562 14.3097 12.8333 14.0003 12.8333C13.6909 12.8333 13.3942 12.9562 13.1754 13.175C12.9566 13.3938 12.8337 13.6905 12.8337 13.9999ZM21.0003 13.9999C21.0003 14.3093 21.1232 14.6061 21.342 14.8249C21.5608 15.0437 21.8576 15.1666 22.167 15.1666C22.4764 15.1666 22.7732 15.0437 22.992 14.8249C23.2107 14.6061 23.3337 14.3093 23.3337 13.9999C23.3337 13.6905 23.2107 13.3938 22.992 13.175C22.7732 12.9562 22.4764 12.8333 22.167 12.8333C21.8576 12.8333 21.5608 12.9562 21.342 13.175C21.1232 13.3938 21.0003 13.6905 21.0003 13.9999Z" stroke="#74787D" stroke-width="2" stroke-linecap="round" stroke-linejoin="round"/>
</svg>
