<svg width="24" height="24" viewBox="0 0 24 24" fill="none" xmlns="http://www.w3.org/2000/svg">
<path fill-rule="evenodd" clip-rule="evenodd" d="M12 22C6.47715 22 2 17.5228 2 12C2 6.47715 6.47715 2 12 2C17.5228 2 22 6.47715 22 12C22 17.5228 17.5228 22 12 22ZM10.8368 6.28571L10.9149 8.33813L11.2428 13.7866H12.7416L13.0695 8.33813L13.1475 6.28571H10.8368ZM10.9774 17.3156C11.248 17.5814 11.5863 17.7143 11.9922 17.7143C12.3981 17.7143 12.7364 17.5814 13.007 17.3156C13.2881 17.04 13.4286 16.7004 13.4286 16.2968C13.4286 15.8932 13.2881 15.5585 13.007 15.2927C12.7364 15.0171 12.3981 14.8793 11.9922 14.8793C11.5863 14.8793 11.248 15.0171 10.9774 15.2927C10.7067 15.5585 10.5714 15.8932 10.5714 16.2968C10.5714 16.7004 10.7067 17.04 10.9774 17.3156Z"/>
</svg>
