<svg width="166" height="176" viewBox="0 0 166 176" fill="none" xmlns="http://www.w3.org/2000/svg">
<path d="M83 167.142C128.84 167.142 166 129.726 166 83.5708C166 37.4159 128.84 0 83 0C37.1604 0 0 37.4159 0 83.5708C0 129.726 37.1604 167.142 83 167.142Z" fill="#0ABE7D"/>
<mask id="mask0_1957_10858" style="mask-type:luminance" maskUnits="userSpaceOnUse" x="0" y="0" width="166" height="168">
<path d="M83 167.142C128.84 167.142 166 129.726 166 83.5708C166 37.4159 128.84 0 83 0C37.1604 0 0 37.4159 0 83.5708C0 129.726 37.1604 167.142 83 167.142Z" fill="white"/>
</mask>
<g mask="url(#mask0_1957_10858)">
<path d="M88.811 106.511C88.811 106.511 87.068 81.3566 87.6075 74.0441C87.6075 74.0441 88.728 67.9852 95.451 66.857C95.451 66.857 104 65.6035 106.366 77.5541V90.0897L88.811 106.511Z" fill="url(#paint0_linear_1957_10858)"/>
<path d="M103.17 88.5023C103.17 88.5023 101.759 75.3817 102.797 70.4928C103.834 65.6039 105.619 56.1604 114.458 56.1604C114.458 56.1604 123.132 55.9515 123.547 68.111L116.824 87.2487L103.17 88.4605V88.5023Z" fill="url(#paint1_linear_1957_10858)"/>
<path d="M113.42 86.2044C113.42 86.2044 118.275 79.5606 118.815 74.6717C119.354 69.7828 122.301 58.7932 133.713 61.9271C133.713 61.9271 148.446 67.6935 135.622 86.2044L121.222 97.9043L113.42 86.2044Z" fill="url(#paint2_linear_1957_10858)"/>
<path d="M127.447 106.511C127.447 100.327 124.998 94.8532 121.18 90.9672L119.23 89.2122C116.076 86.7887 112.258 85.3262 108.149 85.3262C97.4836 85.3262 88.8516 94.8115 88.8516 106.553C88.8516 107.556 88.9346 108.559 89.0591 109.52C89.2251 110.857 89.5156 112.194 89.9306 113.448C91.5491 129.284 122.135 171.947 122.135 171.947L125.496 154.941L123.131 119.757C125.787 116.122 127.488 111.567 127.488 106.511H127.447Z" fill="#383636"/>
<path d="M108.108 119.172C115.602 119.172 121.678 113.055 121.678 105.509C121.678 97.9622 115.602 91.8447 108.108 91.8447C100.613 91.8447 94.5371 97.9622 94.5371 105.509C94.5371 113.055 100.613 119.172 108.108 119.172Z" fill="#CFCFCE"/>
<path d="M114.625 140.274C114.625 140.274 115.081 130.956 113.255 127.237C111.429 123.519 99.0207 106.261 116.741 90.717C116.741 90.717 124.211 71.1614 139.11 78.6828C139.11 78.6828 148.489 82.1928 140.479 102.417C140.479 102.417 135.914 125.858 152.224 129.703L122.095 171.906L114.625 140.274Z" fill="#383636"/>
<mask id="mask1_1957_10858" style="mask-type:luminance" maskUnits="userSpaceOnUse" x="117" y="73" width="16" height="17">
<path d="M124.916 89.6724C129.271 89.6724 132.801 86.1179 132.801 81.7332C132.801 77.3485 129.271 73.7939 124.916 73.7939C120.561 73.7939 117.031 77.3485 117.031 81.7332C117.031 86.1179 120.561 89.6724 124.916 89.6724Z" fill="white"/>
</mask>
<g mask="url(#mask1_1957_10858)">
<path d="M115.205 140.274C115.205 140.274 115.661 130.956 113.835 127.237C112.009 123.519 99.6008 106.261 117.321 90.717C117.321 90.717 124.791 71.1614 139.69 78.6828C139.69 78.6828 149.069 82.1928 141.059 102.417C141.059 102.417 134.129 121.095 150.438 124.939L122.675 171.906L115.205 140.274Z" fill="#CFCFCE"/>
</g>
<path d="M132.191 72.4382C133.542 69.4822 132.51 66.1006 129.886 64.885C127.263 63.6695 124.041 65.0804 122.69 68.0364C121.339 70.9924 122.371 74.374 124.994 75.5896C127.618 76.8051 130.84 75.3942 132.191 72.4382Z" fill="#CFCFCE"/>
<path d="M116.462 67.6599C117.813 64.7039 116.781 61.3222 114.158 60.1067C111.535 58.8912 108.313 60.3021 106.962 63.2581C105.611 66.2141 106.642 69.5957 109.266 70.8112C111.889 72.0268 115.111 70.6158 116.462 67.6599Z" fill="#CFCFCE"/>
<path d="M99.2117 75.8799C99.571 72.9715 97.7787 70.3528 95.2086 70.0309C92.6385 69.7091 90.2637 71.8059 89.9044 74.7143C89.5452 77.6227 91.3374 80.2414 93.9076 80.5633C96.4777 80.8851 98.8524 78.7883 99.2117 75.8799Z" fill="#CFCFCE"/>
<path d="M56.524 56.1596C58.682 56.7864 61.255 59.4606 63.911 65.9791C63.911 65.9791 67.1065 74.6705 65.737 82.6515C64.3675 90.6325 53.1625 83.3619 53.1625 83.3619L52.3325 76.8016C52.3325 76.8016 50.1745 64.642 51.0045 60.5888C51.5025 58.2488 53.619 55.3239 56.524 56.1596Z" fill="#FFDECB"/>
<path d="M41.0027 100.494C41.0027 100.494 36.1057 85.4932 30.0882 77.93C24.0707 70.3669 24.8177 63.723 33.8647 65.0601C33.8647 65.0601 42.1232 66.7733 44.9452 76.8018C47.7672 86.8303 41.0027 100.494 41.0027 100.494Z" fill="#FFD8C2"/>
<path d="M36.6816 69.3436C36.6816 69.3436 28.9211 61.0701 35.9346 56.6826C35.9346 56.6826 43.4461 51.2923 52.7421 70.8061C52.7421 70.8061 56.4356 77.4499 56.5186 84.2192C56.6016 90.9884 49.7541 90.1109 49.7541 90.1109L36.6401 69.3018L36.6816 69.3436Z" fill="#FFD9C4"/>
<path d="M72.5838 92.0117L75.1153 80.855C78.1448 66.6897 71.0898 67.024 71.0898 67.024C64.9063 65.854 62.3748 80.855 62.3748 80.855L56.1913 84.9917L50.3398 89.1703L52.7883 94.0592V120.718C52.7883 120.718 51.9583 128.992 63.7028 125.106C75.4473 121.22 75.8623 107.222 75.8623 107.222C76.7338 100.828 74.6173 95.5217 72.5838 92.0535V92.0117Z" fill="#FFE0CA"/>
<path d="M63.7029 112.821C63.9519 111.818 64.1179 111.191 64.1179 111.191C67.3134 93.3905 52.2904 88.2927 52.2904 88.2927C53.0374 79.2253 45.8994 72.2053 45.8994 72.2053C40.8364 68.6118 35.9394 75.2139 38.3879 80.1446C40.8364 85.0752 40.7119 92.5548 38.3879 95.2709C36.1054 97.9451 34.6529 106.971 35.1094 115.746C33.6984 119.841 29.9634 125.858 20.3354 131.917C3.40343 142.53 44.7789 175.958 44.7789 175.958C44.7789 175.958 72.0029 149.717 63.7444 112.779L63.7029 112.821Z" fill="#FFEBDB"/>
</g>
<path d="M66.9213 18.3681C66.9213 18.3681 75.144 39.5922 78.8494 40.3723C78.8494 40.3723 61.3102 37.1584 54.3808 28.0923" fill="#B85FFF"/>
<path d="M94.1433 32.1695C94.1433 32.1695 90.5214 49.1823 88.0002 50.2954C88.0002 50.2954 99.9826 45.3834 103.928 37.6263" fill="#FFD232"/>
<defs>
<linearGradient id="paint0_linear_1957_10858" x1="88.479" y1="69.4895" x2="101.747" y2="101.056" gradientUnits="userSpaceOnUse">
<stop stop-color="#434343"/>
<stop offset="0.07" stop-color="#404040"/>
<stop offset="0.47" stop-color="#383738"/>
<stop offset="1" stop-color="#363436"/>
</linearGradient>
<linearGradient id="paint1_linear_1957_10858" x1="105.992" y1="58.8347" x2="117.749" y2="86.8991" gradientUnits="userSpaceOnUse">
<stop offset="0.36" stop-color="#434343"/>
<stop offset="0.62" stop-color="#3B3B3B"/>
<stop offset="1" stop-color="#393839"/>
</linearGradient>
<linearGradient id="paint2_linear_1957_10858" x1="120.309" y1="61.76" x2="134.962" y2="96.663" gradientUnits="userSpaceOnUse">
<stop stop-color="#434343"/>
<stop offset="0.07" stop-color="#404040"/>
<stop offset="0.47" stop-color="#383738"/>
<stop offset="1" stop-color="#363436"/>
</linearGradient>
</defs>
</svg>
