<svg width="24" height="24" viewBox="0 0 24 24" fill="none" xmlns="http://www.w3.org/2000/svg">
<path d="M12.6875 20.2153V20.2839L12.7558 20.2775C14.6902 20.0984 16.5011 19.2484 17.8748 17.8748C19.2485 16.5011 20.0985 14.6902 20.2775 12.7558L20.2839 12.6875H20.2153H17.25C17.0677 12.6875 16.8928 12.6151 16.7639 12.4861C16.6349 12.3572 16.5625 12.1823 16.5625 12C16.5625 11.8177 16.6349 11.6428 16.7639 11.5139C16.8928 11.3849 17.0677 11.3125 17.25 11.3125H20.2153H20.2839L20.2775 11.2442C20.0985 9.30981 19.2485 7.49894 17.8748 6.12525C16.5011 4.75155 14.6902 3.90155 12.7558 3.72245L12.6875 3.71613V3.78469V6.75C12.6875 6.93234 12.6151 7.1072 12.4861 7.23614C12.3572 7.36507 12.1823 7.4375 12 7.4375C11.8177 7.4375 11.6428 7.36507 11.5139 7.23614C11.3849 7.1072 11.3125 6.93234 11.3125 6.75V3.78469V3.71613L11.2442 3.72245C9.30982 3.90155 7.49895 4.75155 6.12525 6.12525C4.75156 7.49894 3.90155 9.30981 3.72246 11.2442L3.71614 11.3125H3.78469H6.75C6.93234 11.3125 7.10721 11.3849 7.23614 11.5139C7.36507 11.6428 7.4375 11.8177 7.4375 12C7.4375 12.1823 7.36507 12.3572 7.23614 12.4861C7.10721 12.6151 6.93234 12.6875 6.75 12.6875H3.78469H3.71614L3.72246 12.7558C3.90155 14.6902 4.75156 16.5011 6.12525 17.8748C7.49895 19.2484 9.30982 20.0984 11.2442 20.2775L11.3125 20.2839V20.2153V17.25C11.3125 17.0677 11.3849 16.8928 11.5139 16.7639C11.6428 16.6349 11.8177 16.5625 12 16.5625C12.1823 16.5625 12.3572 16.6349 12.4861 16.7639C12.6151 16.8928 12.6875 17.0677 12.6875 17.25V20.2153ZM6.61792 3.94514C8.21101 2.88067 10.084 2.31251 12 2.3125C14.5684 2.31522 17.0309 3.33674 18.8471 5.15292C20.6633 6.9691 21.6848 9.4316 21.6875 12.0001C21.6875 13.916 21.1193 15.789 20.0549 17.3821C18.9904 18.9752 17.4774 20.2169 15.7072 20.9501C13.9371 21.6833 11.9893 21.8752 10.1101 21.5014C8.23088 21.1276 6.50473 20.2049 5.14991 18.8501C3.79509 17.4953 2.87244 15.7691 2.49865 13.8899C2.12485 12.0107 2.3167 10.0629 3.04992 8.29275C3.78315 6.52259 5.02482 5.00961 6.61792 3.94514Z" fill="#474C51" stroke="#474C51" stroke-width="0.125"/>
</svg>
