<svg viewBox="0 0 22 22" fill="none" xmlns="http://www.w3.org/2000/svg">
<path d="M6.875 4.8125V2.0625C6.875 1.88016 6.94743 1.7053 7.07636 1.57636C7.2053 1.44743 7.38016 1.375 7.5625 1.375C7.74484 1.375 7.9197 1.44743 8.04864 1.57636C8.17757 1.7053 8.25 1.88016 8.25 2.0625V4.8125C8.25 4.99484 8.17757 5.1697 8.04864 5.29864C7.9197 5.42757 7.74484 5.5 7.5625 5.5C7.38016 5.5 7.2053 5.42757 7.07636 5.29864C6.94743 5.1697 6.875 4.99484 6.875 4.8125ZM10.3125 5.5C10.4948 5.5 10.6697 5.42757 10.7986 5.29864C10.9276 5.1697 11 4.99484 11 4.8125V2.0625C11 1.88016 10.9276 1.7053 10.7986 1.57636C10.6697 1.44743 10.4948 1.375 10.3125 1.375C10.1302 1.375 9.9553 1.44743 9.82636 1.57636C9.69743 1.7053 9.625 1.88016 9.625 2.0625V4.8125C9.625 4.99484 9.69743 5.1697 9.82636 5.29864C9.9553 5.42757 10.1302 5.5 10.3125 5.5ZM13.0625 5.5C13.2448 5.5 13.4197 5.42757 13.5486 5.29864C13.6776 5.1697 13.75 4.99484 13.75 4.8125V2.0625C13.75 1.88016 13.6776 1.7053 13.5486 1.57636C13.4197 1.44743 13.2448 1.375 13.0625 1.375C12.8802 1.375 12.7053 1.44743 12.5764 1.57636C12.4474 1.7053 12.375 1.88016 12.375 2.0625V4.8125C12.375 4.99484 12.4474 5.1697 12.5764 5.29864C12.7053 5.42757 12.8802 5.5 13.0625 5.5ZM21.3125 10.3125V11C21.3122 11.8745 20.9787 12.7159 20.3798 13.3531C19.781 13.9903 18.9617 14.3753 18.089 14.4298C17.62 15.7563 16.8216 16.9418 15.7687 17.875H17.875C18.0573 17.875 18.2322 17.9474 18.3611 18.0764C18.4901 18.2053 18.5625 18.3802 18.5625 18.5625C18.5625 18.7448 18.4901 18.9197 18.3611 19.0486C18.2322 19.1776 18.0573 19.25 17.875 19.25H2.75C2.56766 19.25 2.3928 19.1776 2.26386 19.0486C2.13493 18.9197 2.0625 18.7448 2.0625 18.5625C2.0625 18.3802 2.13493 18.2053 2.26386 18.0764C2.3928 17.9474 2.56766 17.875 2.75 17.875H4.85891C3.98174 17.1 3.27894 16.1478 2.7969 15.0813C2.31486 14.0147 2.06455 12.858 2.0625 11.6875V7.5625C2.0625 7.38016 2.13493 7.2053 2.26386 7.07636C2.3928 6.94743 2.56766 6.875 2.75 6.875H17.875C18.7867 6.875 19.661 7.23716 20.3057 7.88182C20.9503 8.52648 21.3125 9.40082 21.3125 10.3125ZM17.1875 8.25H3.4375V11.6875C3.44015 12.9783 3.80495 14.2426 4.49041 15.3364C5.17587 16.4302 6.15449 17.3097 7.315 17.875H13.31C14.4705 17.3097 15.4491 16.4302 16.1346 15.3364C16.8201 14.2426 17.1848 12.9783 17.1875 11.6875V8.25ZM19.9375 10.3125C19.9374 9.8861 19.8051 9.47021 19.5588 9.12209C19.3126 8.77397 18.9645 8.51073 18.5625 8.36859V11.6875C18.562 12.1192 18.5275 12.5502 18.4594 12.9766C18.8859 12.8505 19.2603 12.59 19.5267 12.2338C19.7931 11.8776 19.9372 11.4448 19.9375 11V10.3125Z"/>
</svg>
