<svg viewBox="0 0 24 24" fill="none" xmlns="http://www.w3.org/2000/svg">
<path d="M13.7289 3.51001L15.4889 7.03001C15.7289 7.52002 16.3689 7.99001 16.9089 8.08001L20.0989 8.61001C22.1389 8.95001 22.6189 10.43 21.1489 11.89L18.6689 14.37C18.2489 14.79 18.0189 15.6 18.1489 16.18L18.8589 19.25C19.4189 21.68 18.1289 22.62 15.9789 21.35L12.9889 19.58C12.4489 19.26 11.5589 19.26 11.0089 19.58L8.01893 21.35C5.87893 22.62 4.57893 21.67 5.13893 19.25L5.84893 16.18C5.97893 15.6 5.74893 14.79 5.32893 14.37L2.84893 11.89C1.38893 10.43 1.85893 8.95001 3.89893 8.61001L7.08893 8.08001C7.61893 7.99001 8.25893 7.52002 8.49893 7.03001L10.2589 3.51001C11.2189 1.60001 12.7789 1.60001 13.7289 3.51001Z" stroke="#1B1D1F" stroke-width="1.5" stroke-linecap="round" stroke-linejoin="round"/>
</svg>
