<svg viewBox="0 0 22 22" fill="none" xmlns="http://www.w3.org/2000/svg">
<path d="M19.2036 3.44349C19.1938 3.2753 19.1226 3.11657 19.0034 2.99744C18.8843 2.87831 18.7256 2.80707 18.5574 2.79724C12.015 2.4131 6.77449 4.38279 4.54011 8.0781C3.76561 9.34217 3.38396 10.8078 3.44355 12.289C3.48245 13.2363 3.67517 14.1709 4.01418 15.0562C4.0341 15.1107 4.06748 15.1593 4.11122 15.1974C4.15496 15.2355 4.20764 15.2619 4.26434 15.2742C4.32104 15.2864 4.37993 15.2842 4.43551 15.2675C4.49109 15.2509 4.54156 15.2205 4.58222 15.1791L11.8869 7.76271C11.9508 7.69884 12.0266 7.64817 12.1101 7.6136C12.1935 7.57903 12.283 7.56124 12.3733 7.56124C12.4637 7.56124 12.5531 7.57903 12.6366 7.6136C12.72 7.64817 12.7958 7.69884 12.8597 7.76271C12.9236 7.82659 12.9743 7.90242 13.0088 7.98588C13.0434 8.06933 13.0612 8.15878 13.0612 8.24912C13.0612 8.33945 13.0434 8.4289 13.0088 8.51236C12.9743 8.59582 12.9236 8.67165 12.8597 8.73553L4.87699 16.8386L3.65754 18.058C3.53071 18.1815 3.455 18.3482 3.44545 18.5249C3.43589 18.7016 3.4932 18.8755 3.60597 19.0119C3.66773 19.0835 3.74357 19.1415 3.82876 19.1824C3.91395 19.2233 4.00665 19.2462 4.10109 19.2496C4.19552 19.2531 4.28965 19.2371 4.37761 19.2025C4.46557 19.168 4.54546 19.1157 4.6123 19.0489L6.05519 17.606C7.27035 18.1938 8.49668 18.5144 9.71269 18.5573C9.80837 18.5608 9.90376 18.5625 9.99886 18.5625C11.3837 18.566 12.7422 18.1846 13.9228 17.4608C17.6181 15.2264 19.5886 9.98677 19.2036 3.44349Z"/>
</svg>
