<svg viewBox="0 0 22 22" fill="none" xmlns="http://www.w3.org/2000/svg">
<path d="M19.9375 16.5H17.1875V14.4375H19.25C19.3545 14.4374 19.4576 14.4136 19.5514 14.3678C19.6453 14.322 19.7275 14.2554 19.7918 14.173C19.8561 14.0907 19.9008 13.9948 19.9224 13.8926C19.9441 13.7904 19.9422 13.6846 19.9169 13.5832L17.1669 2.58323C17.1296 2.43458 17.0438 2.30263 16.9229 2.20835C16.8021 2.11407 16.6533 2.06287 16.5 2.06287C16.3467 2.06287 16.1979 2.11407 16.0771 2.20835C15.9562 2.30263 15.8704 2.43458 15.8331 2.58323L13.0831 13.5832C13.0578 13.6846 13.0559 13.7904 13.0776 13.8926C13.0992 13.9948 13.1439 14.0907 13.2082 14.173C13.2725 14.2554 13.3547 14.322 13.4486 14.3678C13.5424 14.4136 13.6455 14.4374 13.75 14.4375H15.8125V16.5H10.3125V15.125H11C11.1823 15.125 11.3572 15.0525 11.4861 14.9236C11.6151 14.7947 11.6875 14.6198 11.6875 14.4375C11.6875 14.2551 11.6151 14.0802 11.4861 13.9513C11.3572 13.8224 11.1823 13.75 11 13.75H10.3125V12.375H11C11.1823 12.375 11.3572 12.3025 11.4861 12.1736C11.6151 12.0447 11.6875 11.8698 11.6875 11.6875C11.6875 11.5051 11.6151 11.3302 11.4861 11.2013C11.3572 11.0724 11.1823 11 11 11H3.4375C3.25516 11 3.0803 11.0724 2.95136 11.2013C2.82243 11.3302 2.75 11.5051 2.75 11.6875C2.75 11.8698 2.82243 12.0447 2.95136 12.1736C3.0803 12.3025 3.25516 12.375 3.4375 12.375H4.125V13.75H3.4375C3.25516 13.75 3.0803 13.8224 2.95136 13.9513C2.82243 14.0802 2.75 14.2551 2.75 14.4375C2.75 14.6198 2.82243 14.7947 2.95136 14.9236C3.0803 15.0525 3.25516 15.125 3.4375 15.125H4.125V16.5H2.0625C1.88016 16.5 1.7053 16.5724 1.57636 16.7013C1.44743 16.8302 1.375 17.0051 1.375 17.1875C1.375 17.3698 1.44743 17.5447 1.57636 17.6736C1.7053 17.8025 1.88016 17.875 2.0625 17.875H19.9375C20.1198 17.875 20.2947 17.8025 20.4236 17.6736C20.5526 17.5447 20.625 17.3698 20.625 17.1875C20.625 17.0051 20.5526 16.8302 20.4236 16.7013C20.2947 16.5724 20.1198 16.5 19.9375 16.5ZM16.5 5.58589L18.3691 13.0625H14.6309L16.5 5.58589ZM5.5 12.375H8.9375V13.75H5.5V12.375ZM5.5 15.125H8.9375V16.5H5.5V15.125ZM9.96875 8.24995C10.4447 8.24995 10.9099 8.10883 11.3056 7.84442C11.7013 7.58002 12.0097 7.20422 12.1918 6.76453C12.374 6.32485 12.4216 5.84103 12.3288 5.37426C12.2359 4.9075 12.0067 4.47874 11.6702 4.14222C11.3337 3.8057 10.905 3.57653 10.4382 3.48369C9.97142 3.39084 9.4876 3.43849 9.04792 3.62062C8.60823 3.80274 8.23243 4.11115 7.96803 4.50686C7.70362 4.90257 7.5625 5.36779 7.5625 5.8437C7.5625 6.48188 7.81602 7.09392 8.26727 7.54518C8.71853 7.99644 9.33057 8.24995 9.96875 8.24995ZM9.96875 4.81245C10.1727 4.81245 10.3721 4.87293 10.5417 4.98625C10.7113 5.09956 10.8434 5.26062 10.9215 5.44906C10.9996 5.63749 11.02 5.84484 10.9802 6.04489C10.9404 6.24493 10.8422 6.42868 10.698 6.5729C10.5537 6.71713 10.37 6.81534 10.1699 6.85514C9.96989 6.89493 9.76254 6.8745 9.57411 6.79645C9.38567 6.7184 9.22461 6.58622 9.1113 6.41663C8.99798 6.24704 8.9375 6.04766 8.9375 5.8437C8.9375 5.5702 9.04615 5.30789 9.23955 5.1145C9.43294 4.9211 9.69525 4.81245 9.96875 4.81245Z"/>
</svg>
