<svg viewBox="0 0 22 22" fill="none" xmlns="http://www.w3.org/2000/svg">
<path d="M6.18751 7.56249V3.43748C6.18751 3.25515 6.25994 3.08028 6.38887 2.95135C6.5178 2.82242 6.69267 2.74999 6.87501 2.74999C7.05734 2.74999 7.23221 2.82242 7.36114 2.95135C7.49007 3.08028 7.56251 3.25515 7.56251 3.43748V7.56249C7.56251 7.74482 7.49007 7.91969 7.36114 8.04862C7.23221 8.17755 7.05734 8.24999 6.87501 8.24999C6.69267 8.24999 6.5178 8.17755 6.38887 8.04862C6.25994 7.91969 6.18751 7.74482 6.18751 7.56249ZM18.5625 3.43748V19.25C18.5625 19.4323 18.4901 19.6072 18.3611 19.7361C18.2322 19.8651 18.0573 19.9375 17.875 19.9375C17.6927 19.9375 17.5178 19.8651 17.3889 19.7361C17.2599 19.6072 17.1875 19.4323 17.1875 19.25V15.125H13.0625C12.8802 15.125 12.7053 15.0526 12.5764 14.9236C12.4474 14.7947 12.375 14.6198 12.375 14.4375C12.4069 12.7906 12.6149 11.1519 12.9955 9.54936C13.8359 6.06975 15.4292 3.73741 17.6043 2.80584C17.7088 2.76106 17.8229 2.74292 17.9361 2.75303C18.0494 2.76315 18.1584 2.8012 18.2534 2.8638C18.3483 2.92639 18.4263 3.01157 18.4802 3.11169C18.5342 3.21181 18.5625 3.32375 18.5625 3.43748ZM17.1875 4.63202C14.4229 6.7435 13.8815 11.8869 13.7758 13.75H17.1875V4.63202ZM10.3031 3.32491C10.2896 3.23463 10.2583 3.14794 10.211 3.0699C10.1636 2.99185 10.1013 2.92401 10.0274 2.87032C9.95363 2.81664 9.86986 2.77819 9.78103 2.75722C9.6922 2.73625 9.60008 2.73318 9.51005 2.74818C9.42002 2.76319 9.33388 2.79597 9.25665 2.84462C9.17942 2.89326 9.11266 2.9568 9.06024 3.03152C9.00783 3.10624 8.97082 3.19065 8.95137 3.27983C8.93192 3.36901 8.93042 3.46116 8.94696 3.55092L9.62501 7.61663C9.62501 8.34597 9.33528 9.04544 8.81955 9.56117C8.30383 10.0769 7.60435 10.3666 6.87501 10.3666C6.14566 10.3666 5.44619 10.0769 4.93046 9.56117C4.41474 9.04544 4.12501 8.34597 4.12501 7.61663L4.80219 3.55092C4.81873 3.46116 4.81724 3.36901 4.79779 3.27983C4.77834 3.19065 4.74133 3.10624 4.68891 3.03152C4.6365 2.9568 4.56973 2.89326 4.4925 2.84462C4.41527 2.79597 4.32913 2.76319 4.2391 2.74818C4.14907 2.73318 4.05696 2.73625 3.96812 2.75722C3.87929 2.77819 3.79553 2.81664 3.72171 2.87032C3.6479 2.92401 3.58551 2.99185 3.53819 3.0699C3.49087 3.14794 3.45957 3.23463 3.4461 3.32491L2.7586 7.44991C2.75272 7.48714 2.74984 7.52479 2.75001 7.56249C2.75138 8.53685 3.09712 9.47937 3.72614 10.2235C4.35516 10.9676 5.22697 11.4655 6.18751 11.629V19.25C6.18751 19.4323 6.25994 19.6072 6.38887 19.7361C6.5178 19.8651 6.69267 19.9375 6.87501 19.9375C7.05734 19.9375 7.23221 19.8651 7.36114 19.7361C7.49007 19.6072 7.56251 19.4323 7.56251 19.25V11.629C8.52305 11.4655 9.39485 10.9676 10.0239 10.2235C10.6529 9.47937 10.9986 8.53685 11 7.56249C10.9999 7.52477 10.9967 7.48712 10.9906 7.44991L10.3031 3.32491Z"/>
</svg>
