<svg viewBox="0 0 18 18" fill="none" xmlns="http://www.w3.org/2000/svg">
<path d="M16.4879 8.04233L13.3168 10.8098L14.2667 14.9301C14.317 15.1455 14.3027 15.371 14.2255 15.5783C14.1483 15.7856 14.0118 15.9655 13.8329 16.0956C13.654 16.2257 13.4408 16.3002 13.2198 16.3098C12.9988 16.3193 12.7799 16.2635 12.5905 16.1494L8.99681 13.9697L5.41087 16.1494C5.22143 16.2635 5.00254 16.3193 4.78156 16.3098C4.56058 16.3002 4.34732 16.2257 4.16845 16.0956C3.98958 15.9655 3.85302 15.7856 3.77586 15.5783C3.6987 15.371 3.68436 15.1455 3.73462 14.9301L4.68314 10.814L1.51134 8.04233C1.34358 7.89764 1.22228 7.70664 1.16263 7.49329C1.10299 7.27993 1.10767 7.05372 1.17607 6.84301C1.24448 6.6323 1.37358 6.44648 1.54717 6.30885C1.72077 6.17122 1.93113 6.08791 2.15189 6.06936L6.33267 5.70725L7.96462 1.81475C8.04985 1.6105 8.1936 1.43604 8.37777 1.31332C8.56195 1.1906 8.77831 1.12512 8.99963 1.12512C9.22094 1.12512 9.4373 1.1906 9.62148 1.31332C9.80565 1.43604 9.9494 1.6105 10.0346 1.81475L11.6715 5.70725L15.8509 6.06936C16.0716 6.08791 16.282 6.17122 16.4556 6.30885C16.6292 6.44648 16.7583 6.6323 16.8267 6.84301C16.8951 7.05372 16.8998 7.27993 16.8401 7.49329C16.7805 7.70664 16.6592 7.89764 16.4914 8.04233H16.4879Z"/>
</svg>
