<svg viewBox="0 0 60 60" fill="none" xmlns="http://www.w3.org/2000/svg">
<path d="M30 5.625C25.1791 5.625 20.4664 7.05457 16.458 9.73293C12.4495 12.4113 9.32533 16.2181 7.48045 20.6721C5.63556 25.126 5.15285 30.027 6.09337 34.7553C7.03388 39.4836 9.35538 43.8268 12.7643 47.2357C16.1732 50.6446 20.5164 52.9661 25.2447 53.9066C29.973 54.8472 34.874 54.3644 39.3279 52.5196C43.7819 50.6747 47.5887 47.5505 50.2671 43.542C52.9454 39.5336 54.375 34.8209 54.375 30C54.3682 23.5374 51.7979 17.3415 47.2282 12.7718C42.6585 8.20209 36.4626 5.63182 30 5.625ZM30 50.625C25.9208 50.625 21.9331 49.4154 18.5414 47.1491C15.1496 44.8828 12.5061 41.6616 10.945 37.8928C9.38394 34.1241 8.97549 29.9771 9.77131 25.9763C10.5671 21.9754 12.5315 18.3004 15.4159 15.4159C18.3004 12.5315 21.9754 10.5671 25.9763 9.7713C29.9771 8.97548 34.1241 9.38393 37.8929 10.945C41.6616 12.506 44.8828 15.1496 47.1491 18.5414C49.4154 21.9331 50.625 25.9208 50.625 30C50.6188 35.4682 48.4438 40.7106 44.5772 44.5772C40.7106 48.4438 35.4682 50.6188 30 50.625ZM28.125 31.875V18.75C28.125 18.2527 28.3226 17.7758 28.6742 17.4242C29.0258 17.0725 29.5027 16.875 30 16.875C30.4973 16.875 30.9742 17.0725 31.3258 17.4242C31.6775 17.7758 31.875 18.2527 31.875 18.75V31.875C31.875 32.3723 31.6775 32.8492 31.3258 33.2008C30.9742 33.5525 30.4973 33.75 30 33.75C29.5027 33.75 29.0258 33.5525 28.6742 33.2008C28.3226 32.8492 28.125 32.3723 28.125 31.875ZM32.8125 40.3125C32.8125 40.8688 32.6476 41.4125 32.3385 41.875C32.0295 42.3376 31.5902 42.698 31.0763 42.9109C30.5624 43.1238 29.9969 43.1795 29.4513 43.071C28.9057 42.9624 28.4046 42.6946 28.0113 42.3012C27.6179 41.9079 27.3501 41.4068 27.2416 40.8612C27.133 40.3156 27.1887 39.7501 27.4016 39.2362C27.6145 38.7223 27.975 38.283 28.4375 37.974C28.9 37.665 29.4438 37.5 30 37.5C30.7459 37.5 31.4613 37.7963 31.9887 38.3238C32.5162 38.8512 32.8125 39.5666 32.8125 40.3125Z"/>
</svg>
