<svg width="28" height="28" viewBox="0 0 28 28" fill="none" xmlns="http://www.w3.org/2000/svg">
<path d="M15.3125 14.0002C15.3125 14.2598 15.2355 14.5136 15.0913 14.7294C14.9471 14.9452 14.7421 15.1135 14.5023 15.2128C14.2624 15.3121 13.9985 15.3381 13.7439 15.2875C13.4893 15.2369 13.2555 15.1119 13.0719 14.9283C12.8884 14.7447 12.7634 14.5109 12.7127 14.2563C12.6621 14.0017 12.6881 13.7378 12.7874 13.4979C12.8867 13.2581 13.055 13.0531 13.2708 12.9089C13.4867 12.7647 13.7404 12.6877 14 12.6877C14.3481 12.6877 14.6819 12.826 14.9281 13.0721C15.1742 13.3183 15.3125 13.6521 15.3125 14.0002ZM9.1875 12.6877C8.92791 12.6877 8.67415 12.7647 8.45831 12.9089C8.24247 13.0531 8.07425 13.2581 7.97491 13.4979C7.87557 13.7378 7.84958 14.0017 7.90022 14.2563C7.95086 14.5109 8.07587 14.7447 8.25942 14.9283C8.44298 15.1119 8.67684 15.2369 8.93144 15.2875C9.18604 15.3381 9.44994 15.3121 9.68977 15.2128C9.9296 15.1135 10.1346 14.9452 10.2788 14.7294C10.423 14.5136 10.5 14.2598 10.5 14.0002C10.5 13.6521 10.3617 13.3183 10.1156 13.0721C9.86944 12.826 9.5356 12.6877 9.1875 12.6877ZM18.8125 12.6877C18.5529 12.6877 18.2992 12.7647 18.0833 12.9089C17.8675 13.0531 17.6992 13.2581 17.5999 13.4979C17.5006 13.7378 17.4746 14.0017 17.5252 14.2563C17.5759 14.5109 17.7009 14.7447 17.8844 14.9283C18.068 15.1119 18.3018 15.2369 18.5564 15.2875C18.811 15.3381 19.0749 15.3121 19.3148 15.2128C19.5546 15.1135 19.7596 14.9452 19.9038 14.7294C20.048 14.5136 20.125 14.2598 20.125 14.0002C20.125 13.6521 19.9867 13.3183 19.7406 13.0721C19.4944 12.826 19.1606 12.6877 18.8125 12.6877ZM25.375 14.0002C25.3754 15.9641 24.8674 17.8946 23.9004 19.6039C22.9333 21.3132 21.5403 22.7429 19.8567 23.7541C18.1732 24.7652 16.2565 25.3233 14.2933 25.3739C12.3301 25.4246 10.3872 24.966 8.65375 24.043L4.92953 25.2844C4.62119 25.3873 4.2903 25.4022 3.97395 25.3275C3.6576 25.2529 3.3683 25.0916 3.13846 24.8618C2.90863 24.6319 2.74734 24.3426 2.67268 24.0263C2.59803 23.7099 2.61295 23.379 2.71578 23.0707L3.95719 19.3465C3.14579 17.8209 2.69259 16.1306 2.632 14.4038C2.5714 12.677 2.90501 10.959 3.60748 9.38036C4.30996 7.80171 5.36284 6.40385 6.68622 5.29286C8.0096 4.18188 9.56869 3.38699 11.2451 2.96852C12.9216 2.55005 14.6713 2.519 16.3616 2.87773C18.0518 3.23646 19.6381 3.97554 21.0001 5.03887C22.3621 6.1022 23.4639 7.46184 24.2219 9.01457C24.9799 10.5673 25.3743 12.2723 25.375 14.0002ZM23.625 14.0002C23.6246 12.5238 23.2845 11.0672 22.6311 9.74328C21.9777 8.41931 21.0285 7.26341 19.8568 6.365C18.6852 5.46659 17.3226 4.84976 15.8744 4.56223C14.4263 4.2747 12.9314 4.32418 11.5054 4.70684C10.0794 5.0895 8.7606 5.79508 7.65095 6.76899C6.54129 7.7429 5.67057 8.95904 5.10613 10.3233C4.54169 11.6876 4.29868 13.1634 4.39588 14.6367C4.49309 16.1099 4.92792 17.541 5.66672 18.8193C5.72873 18.9266 5.76723 19.0459 5.77967 19.1692C5.79212 19.2925 5.77822 19.4171 5.73891 19.5346L4.375 23.6252L8.46562 22.2613C8.55472 22.2309 8.64821 22.2154 8.74234 22.2154C8.89602 22.2156 9.04691 22.2564 9.17984 22.3335C10.6431 23.1801 12.3034 23.6264 13.9939 23.6274C15.6844 23.6285 17.3453 23.1843 18.8096 22.3396C20.2739 21.4948 21.4899 20.2794 22.3352 18.8154C23.1805 17.3515 23.6254 15.6907 23.625 14.0002Z" />
</svg>
