<svg viewBox="0 0 28 28" fill="none" xmlns="http://www.w3.org/2000/svg">
<path d="M23.9345 11.3499L15.1845 3.09431C15.1803 3.09058 15.1762 3.08656 15.1725 3.08228C14.8503 2.7893 14.4305 2.62695 13.9951 2.62695C13.5596 2.62695 13.1398 2.7893 12.8177 3.08228L12.8056 3.09431L4.06547 11.3499C3.88719 11.5139 3.74487 11.713 3.64754 11.9348C3.5502 12.1566 3.49996 12.3962 3.5 12.6384V22.7501C3.5 23.2142 3.68437 23.6593 4.01256 23.9875C4.34075 24.3157 4.78587 24.5001 5.25 24.5001H10.5C10.9641 24.5001 11.4092 24.3157 11.7374 23.9875C12.0656 23.6593 12.25 23.2142 12.25 22.7501V17.5001H15.75V22.7501C15.75 23.2142 15.9344 23.6593 16.2626 23.9875C16.5908 24.3157 17.0359 24.5001 17.5 24.5001H22.75C23.2141 24.5001 23.6592 24.3157 23.9874 23.9875C24.3156 23.6593 24.5 23.2142 24.5 22.7501V12.6384C24.5 12.3962 24.4498 12.1566 24.3525 11.9348C24.2551 11.713 24.1128 11.5139 23.9345 11.3499ZM22.75 22.7501H17.5V17.5001C17.5 17.036 17.3156 16.5908 16.9874 16.2627C16.6592 15.9345 16.2141 15.7501 15.75 15.7501H12.25C11.7859 15.7501 11.3408 15.9345 11.0126 16.2627C10.6844 16.5908 10.5 17.036 10.5 17.5001V22.7501H5.25V12.6384L5.26203 12.6274L14 4.37509L22.7391 12.6252L22.7511 12.6362L22.75 22.7501Z"/>
</svg>
