<svg width="28" height="28" viewBox="0 0 28 28" fill="none" xmlns="http://www.w3.org/2000/svg">
<path d="M25.1188 23.8807L19.6424 18.4054C21.2297 16.4998 22.0212 14.0555 21.8523 11.5812C21.6833 9.10685 20.567 6.79288 18.7354 5.12067C16.9039 3.44845 14.4981 2.54673 12.0187 2.60308C9.5392 2.65943 7.17691 3.66951 5.42321 5.42321C3.66951 7.17691 2.65943 9.5392 2.60308 12.0187C2.54673 14.4981 3.44845 16.9039 5.12067 18.7354C6.79288 20.567 9.10685 21.6833 11.5812 21.8523C14.0555 22.0212 16.4998 21.2297 18.4054 19.6424L23.8807 25.1188C23.962 25.2001 24.0585 25.2646 24.1647 25.3086C24.2709 25.3526 24.3848 25.3752 24.4998 25.3752C24.6147 25.3752 24.7286 25.3526 24.8348 25.3086C24.941 25.2646 25.0375 25.2001 25.1188 25.1188C25.2001 25.0375 25.2646 24.941 25.3086 24.8348C25.3526 24.7286 25.3752 24.6147 25.3752 24.4998C25.3752 24.3848 25.3526 24.2709 25.3086 24.1647C25.2646 24.0585 25.2001 23.962 25.1188 23.8807ZM4.37476 12.2498C4.37476 10.6922 4.83662 9.16968 5.70194 7.87465C6.56725 6.57961 7.79716 5.57025 9.23613 4.97421C10.6751 4.37817 12.2585 4.22222 13.7861 4.52608C15.3137 4.82994 16.7169 5.57996 17.8182 6.6813C18.9196 7.78263 19.6696 9.18582 19.9734 10.7134C20.2773 12.241 20.1214 13.8244 19.5253 15.2634C18.9293 16.7024 17.9199 17.9323 16.6249 18.7976C15.3298 19.6629 13.8073 20.1248 12.2498 20.1248C10.1619 20.1224 8.1602 19.292 6.68385 17.8157C5.20751 16.3393 4.37708 14.3376 4.37476 12.2498Z" />
</svg>
