<svg width="28" height="28" viewBox="0 0 28 28" fill="none" xmlns="http://www.w3.org/2000/svg">
<path d="M14 2.625C11.7502 2.625 9.551 3.29213 7.68039 4.54203C5.80978 5.79193 4.35182 7.56847 3.49088 9.64698C2.62993 11.7255 2.40467 14.0126 2.84357 16.2192C3.28248 18.4257 4.36584 20.4525 5.95667 22.0433C7.54749 23.6342 9.57432 24.7175 11.7809 25.1564C13.9874 25.5953 16.2745 25.3701 18.353 24.5091C20.4315 23.6482 22.2081 22.1902 23.458 20.3196C24.7079 18.449 25.375 16.2498 25.375 14C25.3718 10.9841 24.1724 8.09271 22.0398 5.96018C19.9073 3.82764 17.0159 2.62818 14 2.625ZM8.10251 21.6016C8.7355 20.6116 9.60751 19.7969 10.6382 19.2326C11.6688 18.6682 12.825 18.3724 14 18.3724C15.175 18.3724 16.3312 18.6682 17.3618 19.2326C18.3925 19.7969 19.2645 20.6116 19.8975 21.6016C18.2113 22.913 16.1361 23.6249 14 23.6249C11.8639 23.6249 9.7887 22.913 8.10251 21.6016ZM10.5 13.125C10.5 12.4328 10.7053 11.7561 11.0899 11.1805C11.4744 10.6049 12.0211 10.1563 12.6606 9.89142C13.3002 9.62651 14.0039 9.5572 14.6828 9.69225C15.3618 9.8273 15.9854 10.1606 16.4749 10.6501C16.9644 11.1396 17.2977 11.7633 17.4328 12.4422C17.5678 13.1211 17.4985 13.8249 17.2336 14.4644C16.9687 15.1039 16.5201 15.6506 15.9445 16.0351C15.3689 16.4197 14.6922 16.625 14 16.625C13.0717 16.625 12.1815 16.2563 11.5251 15.5999C10.8688 14.9435 10.5 14.0533 10.5 13.125ZM21.1925 20.3886C20.2166 18.9745 18.8444 17.8804 17.2484 17.2441C18.1057 16.5688 18.7313 15.6432 19.0382 14.596C19.345 13.5487 19.3179 12.4319 18.9606 11.4008C18.6033 10.3696 17.9336 9.47547 17.0445 8.84263C16.1554 8.20979 15.0913 7.86973 14 7.86973C12.9087 7.86973 11.8446 8.20979 10.9555 8.84263C10.0665 9.47547 9.39671 10.3696 9.0394 11.4008C8.68209 12.4319 8.65497 13.5487 8.96183 14.596C9.26869 15.6432 9.89427 16.5688 10.7516 17.2441C9.15559 17.8804 7.78338 18.9745 6.80751 20.3886C5.57438 19.0019 4.7684 17.2883 4.48662 15.4541C4.20484 13.62 4.45927 11.7435 5.21929 10.0506C5.9793 8.35768 7.21249 6.92057 8.77035 5.91231C10.3282 4.90404 12.1443 4.36761 14 4.36761C15.8557 4.36761 17.6718 4.90404 19.2297 5.91231C20.7875 6.92057 22.0207 8.35768 22.7807 10.0506C23.5407 11.7435 23.7952 13.62 23.5134 15.4541C23.2316 17.2883 22.4256 19.0019 21.1925 20.3886Z" />
</svg>
