<svg width="28" height="28" viewBox="0 0 28 28" fill="none" xmlns="http://www.w3.org/2000/svg">
<path d="M24.2591 19.2434C23.6521 18.1978 22.7497 15.2392 22.7497 11.375C22.7497 9.05436 21.8278 6.82876 20.1869 5.18782C18.5459 3.54687 16.3204 2.625 13.9997 2.625C11.6791 2.625 9.45347 3.54687 7.81252 5.18782C6.17158 6.82876 5.24971 9.05436 5.24971 11.375C5.24971 15.2403 4.34627 18.1978 3.73924 19.2434C3.58422 19.5093 3.50204 19.8113 3.50099 20.119C3.49993 20.4267 3.58004 20.7293 3.73322 20.9962C3.88641 21.2631 4.10726 21.4848 4.37351 21.6391C4.63976 21.7934 4.94198 21.8748 5.24971 21.875H9.7133C9.91518 22.8628 10.452 23.7506 11.2331 24.3882C12.0142 25.0258 12.9915 25.374 13.9997 25.374C15.008 25.374 15.9853 25.0258 16.7663 24.3882C17.5474 23.7506 18.0842 22.8628 18.2861 21.875H22.7497C23.0573 21.8746 23.3594 21.7931 23.6255 21.6387C23.8916 21.4843 24.1123 21.2625 24.2654 20.9957C24.4184 20.7288 24.4984 20.4263 24.4973 20.1187C24.4962 19.8111 24.4141 19.5092 24.2591 19.2434ZM13.9997 23.625C13.457 23.6248 12.9277 23.4565 12.4846 23.1431C12.0416 22.8297 11.7065 22.3867 11.5256 21.875H16.4738C16.2929 22.3867 15.9578 22.8297 15.5148 23.1431C15.0717 23.4565 14.5424 23.6248 13.9997 23.625ZM5.24971 20.125C6.0919 18.6769 6.99971 15.3212 6.99971 11.375C6.99971 9.51848 7.73721 7.73801 9.04996 6.42525C10.3627 5.1125 12.1432 4.375 13.9997 4.375C15.8562 4.375 17.6367 5.1125 18.9495 6.42525C20.2622 7.73801 20.9997 9.51848 20.9997 11.375C20.9997 15.318 21.9053 18.6736 22.7497 20.125H5.24971Z" fill="#74787D"/>
</svg>
