<svg width="23" height="22" viewBox="0 0 23 22" fill="none" xmlns="http://www.w3.org/2000/svg">
<path d="M7.59412 17.1681L7.59401 17.1679C5.23818 14.4625 4.00001 11.6165 4 8.93753C4.00227 6.9491 4.79317 5.04275 6.19921 3.63671C7.60524 2.23068 9.51158 1.43977 11.5 1.4375C13.4884 1.43977 15.3948 2.23068 16.8008 3.63671C18.2068 5.04276 18.9977 6.94912 19 8.93757C19 11.6165 17.7584 14.4625 15.406 17.168L15.4058 17.1681C14.3497 18.39 13.1609 19.4906 11.8614 20.4496C11.7565 20.523 11.6315 20.5623 11.5034 20.5623C11.3754 20.5623 11.2504 20.523 11.1454 20.4496C9.84355 19.491 8.65244 18.3903 7.59412 17.1681ZM11.4614 19.1273L11.5 19.1576L11.5386 19.1273C12.251 18.567 13.8023 17.2578 15.176 15.4713C16.5491 13.6856 17.75 11.4164 17.75 8.9375C17.75 7.2799 17.0915 5.69019 15.9194 4.51808C14.7473 3.34598 13.1576 2.6875 11.5 2.6875C9.8424 2.6875 8.25269 3.34598 7.08058 4.51808C5.90848 5.69019 5.25 7.2799 5.25 8.9375C5.25 11.4173 6.45091 13.6865 7.824 15.4719C9.19773 17.2582 10.749 18.567 11.4614 19.1273ZM9.62495 6.13129C10.18 5.76044 10.8325 5.5625 11.5 5.5625C12.3951 5.5625 13.2535 5.91808 13.8865 6.55101C14.5194 7.18395 14.875 8.04239 14.875 8.9375C14.875 9.60501 14.6771 10.2575 14.3062 10.8125C13.9354 11.3676 13.4083 11.8001 12.7916 12.0556C12.1749 12.311 11.4963 12.3779 10.8416 12.2477C10.1869 12.1174 9.58552 11.796 9.11351 11.324C8.64151 10.852 8.32007 10.2506 8.18985 9.59593C8.05962 8.94124 8.12646 8.26264 8.38191 7.64594C8.63735 7.02924 9.06993 6.50214 9.62495 6.13129ZM10.3194 10.7044C10.6689 10.9379 11.0797 11.0625 11.5 11.0625C12.0636 11.0625 12.6041 10.8386 13.0026 10.4401C13.4011 10.0416 13.625 9.50109 13.625 8.9375C13.625 8.51721 13.5004 8.10637 13.2669 7.75691C13.0334 7.40746 12.7015 7.13509 12.3132 6.97426C11.9249 6.81342 11.4976 6.77134 11.0854 6.85333C10.6732 6.93532 10.2946 7.13771 9.9974 7.4349C9.70021 7.73208 9.49782 8.11072 9.41583 8.52293C9.33384 8.93514 9.37592 9.36241 9.53676 9.7507C9.69759 10.139 9.96996 10.4709 10.3194 10.7044Z" fill="#A0A4A8" stroke="#A0A4A8" stroke-width="0.125"/>
</svg>
