<svg viewBox="0 0 25 24" fill="none" xmlns="http://www.w3.org/2000/svg">
<path d="M3.98371 14.2941L3.98389 14.294L15.5442 2.73366L15.5 2.68946L15.5442 2.73365C15.6777 2.60013 15.8362 2.49422 16.0106 2.42195C16.185 2.34969 16.372 2.3125 16.5608 2.3125C16.7496 2.3125 16.9365 2.34969 17.111 2.42195C17.2854 2.49422 17.4439 2.60013 17.5774 2.73365L17.5774 2.73366L21.7671 6.92241C21.9006 7.0559 22.0065 7.21438 22.0788 7.38881C22.151 7.56323 22.1882 7.75019 22.1882 7.93899C22.1882 8.12779 22.151 8.31475 22.0788 8.48917C22.0065 8.6636 21.9006 8.82209 21.7671 8.95557L21.8113 8.99977L21.7671 8.95558L11.2671 19.4556L11.1604 19.5623H11.3113H20.75C20.9323 19.5623 21.1072 19.6347 21.2361 19.7636C21.3651 19.8926 21.4375 20.0674 21.4375 20.2498C21.4375 20.4321 21.3651 20.607 21.2361 20.7359C21.1072 20.8648 20.9323 20.9373 20.75 20.9373H5.00001C4.61876 20.9373 4.25313 20.7858 3.98354 20.5162C3.71396 20.2467 3.56251 19.881 3.56251 19.4998L3.56251 15.3101L3.56251 15.3099C3.5619 15.1211 3.59883 14.9341 3.67114 14.7597C3.74345 14.5854 3.8497 14.4271 3.98371 14.2941ZM9.1897 19.5623H9.21558L9.23389 19.544L17.4839 11.294L17.5281 11.2498L17.4839 11.2056L13.2942 7.01589L13.25 6.9717L13.2058 7.01589L4.95581 15.2659L4.93751 15.2842V15.3101V19.4998V19.5623H5.00001H9.1897ZM18.4558 10.2336L18.5 10.2779L18.5442 10.2337L20.7942 7.98365L20.8384 7.93947L20.7942 7.89527L16.6055 3.70558L16.5613 3.66138L16.5171 3.70558L14.2671 5.95558L14.2229 5.99977L14.2671 6.04396L18.4558 10.2336Z" fill="white" stroke="white" stroke-width="0.125"/>
</svg>
