<svg width="22" height="19" viewBox="0 0 22 19" fill="none" xmlns="http://www.w3.org/2000/svg">
<path d="M21.4108 9.72982L21.4109 9.73065C21.4744 10.0472 21.4278 10.3759 21.2789 10.6623C21.13 10.9487 20.8876 11.1757 20.5921 11.3055L20.5913 11.3059C20.4016 11.3924 20.1956 11.4374 19.9871 11.438C19.7387 11.4376 19.495 11.3707 19.2812 11.2443L19.1869 11.1884V11.298V15.2496C19.1869 16.2276 18.7984 17.1655 18.1068 17.8571C17.4153 18.5486 16.4774 18.9371 15.4994 18.9371H6.49939C5.5214 18.9371 4.58347 18.5486 3.89193 17.8571C3.20039 17.1655 2.81189 16.2276 2.81189 15.2496V11.2971V11.1875L2.71755 11.2433C2.50353 11.3701 2.2594 11.437 2.01067 11.4371C1.80248 11.4362 1.59688 11.3908 1.40764 11.304L1.40673 11.3036C1.11151 11.1739 0.869425 10.9472 0.720525 10.6612C0.571624 10.3751 0.524826 10.0468 0.587876 9.73057L0.588016 9.72982L2.12739 1.48453C2.12739 1.48452 2.12739 1.48452 2.12739 1.48451C2.16344 1.2918 2.23853 1.1085 2.34804 0.945883C2.45755 0.783259 2.59917 0.644757 2.7642 0.538893C2.92922 0.433029 3.11415 0.362042 3.30763 0.330297C3.50072 0.298614 3.69824 0.306687 3.8881 0.354017L3.91582 0.362066L3.91603 0.362125L8.83957 1.80957L8.84821 1.8121H8.8572H13.1416H13.1506L13.1593 1.80955L18.0828 0.357437L18.083 0.357363L18.1107 0.34933C18.3005 0.302 18.4981 0.293926 18.6912 0.325609C18.8846 0.357354 19.0696 0.428342 19.2346 0.534205C19.3996 0.640069 19.5412 0.778571 19.6507 0.941195C19.7603 1.10381 19.8353 1.28711 19.8714 1.47982C19.8714 1.47983 19.8714 1.47984 19.8714 1.47984L21.4108 9.72982ZM1.93795 9.98813L2.04883 10.0378L7.5332 2.94753L7.58919 2.87514L7.5014 2.84933L3.55733 1.68964L3.49096 1.67013L3.47826 1.73813L1.93795 9.98813ZM11.6869 17.4996V17.5621H11.7494H15.4994C16.1127 17.5621 16.7009 17.3185 17.1346 16.8848C17.5683 16.4511 17.8119 15.8629 17.8119 15.2496V9.54117V9.51981L17.7988 9.50292L12.9304 3.21135L12.9116 3.1871H12.881H9.11689H9.08622L9.06746 3.21136L4.19996 9.50292L4.18689 9.51981V9.54117V15.2496C4.18689 15.8629 4.43053 16.4511 4.86421 16.8848C5.29788 17.3185 5.88608 17.5621 6.49939 17.5621H10.2494H10.3119V17.4996V16.3099V16.284L10.2936 16.2657L9.01296 14.986C9.01295 14.986 9.01295 14.986 9.01294 14.986C8.88394 14.857 8.81147 14.682 8.81147 14.4996C8.81147 14.3172 8.88395 14.1422 9.01296 14.0132C9.14197 13.8842 9.31694 13.8117 9.49939 13.8117C9.68183 13.8117 9.85679 13.8842 9.9858 14.0132C9.98581 14.0132 9.98582 14.0132 9.98582 14.0132L10.9552 14.9835L10.9994 15.0277L11.0436 14.9835L12.013 14.0132C12.013 14.0132 12.013 14.0132 12.013 14.0132C12.142 13.8842 12.317 13.8117 12.4994 13.8117C12.6818 13.8117 12.8568 13.8842 12.9858 14.0132C13.1148 14.1422 13.1873 14.3172 13.1873 14.4996C13.1873 14.682 13.1148 14.857 12.9858 14.986C12.9858 14.986 12.9858 14.986 12.9858 14.986L11.7052 16.2657L11.6869 16.284V16.3099V17.4996ZM19.95 10.0378L20.0608 9.98813L18.5205 1.73813L18.5078 1.67013L18.4414 1.68964L14.4974 2.84933L14.4096 2.87514L14.4656 2.94753L19.95 10.0378ZM8.68689 11.1246C8.68689 11.3347 8.62458 11.5402 8.50783 11.7149C8.39108 11.8896 8.22514 12.0258 8.03099 12.1062C7.83684 12.1866 7.62321 12.2077 7.41711 12.1667C7.211 12.1257 7.02168 12.0245 6.87309 11.8759C6.7245 11.7273 6.6233 11.538 6.58231 11.3319C6.54131 11.1258 6.56235 10.9121 6.64277 10.718C6.72319 10.5239 6.85937 10.3579 7.0341 10.2412C7.20882 10.1244 7.41425 10.0621 7.62439 10.0621C7.90618 10.0621 8.17643 10.174 8.37569 10.3733C8.57495 10.5726 8.68689 10.8428 8.68689 11.1246ZM15.4369 11.1246C15.4369 11.3347 15.3746 11.5402 15.2578 11.7149C15.1411 11.8896 14.9751 12.0258 14.781 12.1062C14.5868 12.1866 14.3732 12.2077 14.1671 12.1667C13.961 12.1257 13.7717 12.0245 13.6231 11.8759C13.4745 11.7273 13.3733 11.538 13.3323 11.3319C13.2913 11.1258 13.3124 10.9121 13.3928 10.718C13.4732 10.5239 13.6094 10.3579 13.7841 10.2412C13.9588 10.1244 14.1642 10.0621 14.3744 10.0621C14.6562 10.0621 14.9264 10.174 15.1257 10.3733C15.3249 10.5726 15.4369 10.8428 15.4369 11.1246Z" fill="#0ABE7D" stroke="#0ABE7D" stroke-width="0.125"/>
</svg>
