<svg width="19" height="19" viewBox="0 0 19 19" fill="none" xmlns="http://www.w3.org/2000/svg">
<path d="M18.0153 7.72843L10.5153 0.65218C10.5116 0.648981 10.5082 0.645536 10.505 0.641867C10.2289 0.390742 9.86903 0.251587 9.49578 0.251587C9.12253 0.251587 8.7627 0.390742 8.48656 0.641867L8.47625 0.65218L0.984687 7.72843C0.831873 7.86895 0.709891 8.03966 0.626461 8.22976C0.543031 8.41986 0.499968 8.6252 0.5 8.8328V17.5C0.5 17.8978 0.658035 18.2793 0.93934 18.5607C1.22064 18.842 1.60218 19 2 19H6.5C6.89782 19 7.27936 18.842 7.56066 18.5607C7.84196 18.2793 8 17.8978 8 17.5V13H11V17.5C11 17.8978 11.158 18.2793 11.4393 18.5607C11.7206 18.842 12.1022 19 12.5 19H17C17.3978 19 17.7794 18.842 18.0607 18.5607C18.342 18.2793 18.5 17.8978 18.5 17.5V8.8328C18.5 8.6252 18.457 8.41986 18.3735 8.22976C18.2901 8.03966 18.1681 7.86895 18.0153 7.72843ZM17 17.5H12.5V13C12.5 12.6022 12.342 12.2206 12.0607 11.9393C11.7794 11.658 11.3978 11.5 11 11.5H8C7.60218 11.5 7.22064 11.658 6.93934 11.9393C6.65804 12.2206 6.5 12.6022 6.5 13V17.5H2V8.8328L2.01031 8.82343L9.5 1.74999L16.9906 8.82155L17.0009 8.83093L17 17.5Z" fill="#A0A4A8"/>
</svg>
