<svg width="72" height="56" viewBox="0 0 72 56" fill="none" xmlns="http://www.w3.org/2000/svg">
<path d="M64.1115 7.2135C58.7347 2.08032 54.5819 0.851869 50.9536 0.58863C47.7187 0.32539 45.0084 2.43131 44.2216 5.28307C41.4676 4.27399 38.5387 3.70363 35.4788 3.70363C32.4188 3.70363 29.4462 4.27399 26.6922 5.28307C25.9491 2.43131 23.1951 0.32539 19.9602 0.58863C16.3319 0.895743 12.2228 2.1242 6.80224 7.25737C-2.02803 15.6372 -1.11003 20.2439 3.08653 24.5873C4.92253 26.4739 7.23938 27.2636 9.86224 26.8249C9.77481 27.7462 9.73109 28.6237 9.73109 29.5889C9.73109 43.8916 21.2716 55.4303 35.4788 55.4303C49.6859 55.4303 61.2264 43.8477 61.2264 29.5889C61.2264 28.6675 61.1827 27.7462 61.0953 26.8249C63.7181 27.2197 66.035 26.4739 67.8273 24.5873C72.0238 20.2439 72.9418 15.5933 64.1115 7.2135Z" fill="white"/>
<path d="M36.0219 56C21.5088 56 9.70591 44.1542 9.70591 29.5883C9.70591 28.8863 9.70591 28.1843 9.79334 27.4823C7.25793 27.7017 4.98477 26.8681 3.23621 25.0254C0.963084 22.6124 -0.0423499 20.4626 0.00136408 18.1373C0.088792 14.8468 2.27452 11.2492 6.99564 6.81801C12.7659 1.33385 17.0499 0.324764 20.4596 0.0176507C23.6507 -0.201716 26.5359 1.64096 27.585 4.58047C33.093 2.69392 38.907 2.69392 44.415 4.58047C45.5078 1.68484 48.3493 -0.157843 51.5404 0.0176507C54.9501 0.280891 59.2341 1.33385 65.0044 6.81801C69.6818 11.2492 71.9112 14.8468 71.9986 18.1373C72.0424 20.4626 71.0369 22.6124 68.7638 24.9377C67.0152 26.7804 64.7858 27.6578 62.2504 27.4385C62.2941 28.1843 62.3378 28.8863 62.3378 29.5444C62.3378 44.1103 50.5349 56 36.0219 56ZM11.0173 26.1661L10.9299 26.8681C10.8425 27.7895 10.7988 28.6669 10.7988 29.5444C10.7988 43.4961 22.1208 54.8593 36.0219 54.8593C49.9229 54.8593 61.2449 43.4961 61.2449 29.5444C61.2449 28.6669 61.2012 27.7895 61.1138 26.8681L61.0264 26.1661L61.7258 26.2539C64.1738 26.6488 66.3158 25.9468 67.9769 24.1918C70.0315 22.0421 70.9495 20.1994 70.9058 18.1373C70.8184 15.1978 68.6763 11.7757 64.2612 7.56386C58.7095 2.29906 54.6878 1.33385 51.453 1.07061C48.5678 0.851244 46.0324 2.65005 45.2893 5.37019L45.1144 5.94055L44.5461 5.72118C38.9507 3.70301 32.9618 3.70301 27.3664 5.72118L26.7982 5.94055L26.667 5.37019C25.9239 2.65005 23.3447 0.851244 20.5033 1.07061C17.2685 1.33385 13.2467 2.29906 7.69506 7.56386C3.32366 11.8196 1.18165 15.2417 1.09422 18.1812C1.0505 20.1994 1.96851 22.0859 4.02307 24.2357C5.72792 25.9907 7.82621 26.6926 10.3179 26.2978L11.0173 26.1661Z" fill="#E9EBED"/>
<path d="M27.4543 31.7383C28.758 31.7383 29.8149 30.6776 29.8149 29.3692C29.8149 28.0607 28.758 27 27.4543 27C26.1506 27 25.0938 28.0607 25.0938 29.3692C25.0938 30.6776 26.1506 31.7383 27.4543 31.7383Z" fill="#CBCDD2"/>
<path d="M45.4211 31.7383C46.7248 31.7383 47.7817 30.6776 47.7817 29.3692C47.7817 28.0607 46.7248 27 45.4211 27C44.1174 27 43.0605 28.0607 43.0605 29.3692C43.0605 30.6776 44.1174 31.7383 45.4211 31.7383Z" fill="#CBCDD2"/>
<path d="M38.5252 36.8303C37.4181 38.3899 35.5819 38.3899 34.4748 36.8303C33.3678 35.2708 34.2588 34 36.5 34C38.7412 34 39.6322 35.2708 38.5252 36.8303Z" fill="#CBCDD2"/>
<path d="M31.0842 44.8588C30.4722 44.8588 30.6034 44.8588 30.5597 44.8588C25.7074 44.8588 24.702 39.243 24.702 39.1992C24.6582 38.892 24.8331 38.6288 25.1391 38.5849C25.4451 38.5411 25.7074 38.7166 25.7511 39.0237C25.7511 39.1992 26.6254 43.8059 30.6034 43.8059C30.6471 43.8059 30.6034 43.8059 31.0405 43.8059C31.6962 43.8059 33.0514 43.6742 34.1442 42.7529C35.1934 41.8316 35.7617 40.4276 35.8491 38.4972C35.8491 38.1901 36.1551 37.9707 36.4174 37.9707C36.7234 37.9707 36.9419 38.2339 36.9419 38.5411C36.8545 40.7786 36.1114 42.4897 34.8437 43.5865C33.4885 44.7711 31.8274 44.9027 31.0842 44.9027V44.8588Z" fill="#CBCDD2"/>
<path d="M41.7483 44.8558C41.0052 44.8558 39.3878 44.7242 37.9889 43.5396C36.6775 42.4428 35.9781 40.7317 35.8906 38.4942C35.8906 38.1871 36.1092 37.9238 36.4152 37.9238C36.7212 37.9238 36.9835 38.1432 36.9835 38.4503C37.0709 40.3807 37.6392 41.8285 38.6883 42.706C40.1309 43.9783 42.0543 43.759 42.098 43.759H42.1855C46.2509 43.759 47.0815 39.1962 47.1252 38.9768C47.1689 38.6697 47.4312 38.4942 47.7372 38.5381C48.0432 38.5819 48.218 38.889 48.1743 39.1523C48.1743 39.1962 47.1689 44.8119 42.2729 44.8119H42.1855C42.1855 44.8119 42.0543 44.8119 41.792 44.8119L41.7483 44.8558Z" fill="#CBCDD2"/>
</svg>
