<svg width="50" height="50" viewBox="0 0 50 50" fill="none" xmlns="http://www.w3.org/2000/svg">
<path d="M50 46.0938C50 48.2512 48.2512 50 46.0938 50H3.90625C1.74883 50 0 48.2512 0 46.0938V3.90625C0 1.74883 1.74883 0 3.90625 0H46.0938C48.2512 0 50 1.74883 50 3.90625V46.0938Z" fill="#FFE812"/>
<path d="M24.9997 10.417C15.7949 10.417 8.33301 16.2614 8.33301 23.4706C8.33301 28.1316 11.4526 32.2213 16.1452 34.5307C15.8899 35.4053 14.5046 40.1571 14.4495 40.5304C14.4495 40.5304 14.4163 40.8109 14.5992 40.9179C14.782 41.0249 14.9971 40.9418 14.9971 40.9418C15.5215 40.869 21.0777 36.9921 22.0394 36.3189C23.0002 36.454 23.9894 36.5243 24.9997 36.5243C34.2045 36.5243 41.6663 30.68 41.6663 23.4706C41.6663 16.2614 34.2045 10.417 24.9997 10.417Z" fill="black"/>
<path d="M15.9268 27.7777C15.3932 27.7777 14.9592 27.3745 14.9592 26.8788V21.2875H13.4495C12.9259 21.2875 12.5 20.874 12.5 20.3659C12.5 19.8578 12.926 19.4443 13.4495 19.4443H18.404C18.9277 19.4443 19.3535 19.8578 19.3535 20.3659C19.3535 20.874 18.9275 21.2875 18.404 21.2875H16.8943V26.8788C16.8943 27.3745 16.4604 27.7777 15.9268 27.7777ZM24.411 27.7654C24.0075 27.7654 23.6989 27.6061 23.6058 27.3497L23.1267 26.1297L20.1763 26.1295L19.6969 27.3504C19.6041 27.6062 19.2957 27.7654 18.8922 27.7654C18.6799 27.7656 18.4702 27.7213 18.2771 27.6356C18.0104 27.5159 17.754 27.1868 18.0478 26.2991L20.3622 20.3734C20.5253 19.9228 21.0205 19.4585 21.6507 19.4445C22.2827 19.4583 22.7779 19.9228 22.9413 20.3744L25.2547 26.2974C25.5491 27.1871 25.2927 27.5163 25.026 27.6357C24.8329 27.7213 24.6232 27.7656 24.411 27.7654C24.411 27.7654 24.4108 27.7654 24.411 27.7654ZM22.6179 24.4625L21.6515 21.7919L20.6851 24.4625H22.6179ZM26.8118 27.6404C26.3005 27.6404 25.8846 27.2533 25.8846 26.7777V20.3855C25.8846 19.8665 26.3277 19.4443 26.8723 19.4443C27.4169 19.4443 27.86 19.8665 27.86 20.3855V25.9149H29.9161C30.4274 25.9149 30.8433 26.3021 30.8433 26.7777C30.8433 27.2533 30.4274 27.6404 29.9161 27.6404H26.8118ZM32.1872 27.7654C31.6536 27.7654 31.2197 27.3433 31.2197 26.8243V20.3855C31.2197 19.8665 31.6536 19.4443 32.1872 19.4443C32.7209 19.4443 33.1548 19.8665 33.1548 20.3855V22.4084L35.8543 19.7825C35.9931 19.6475 36.1839 19.5731 36.391 19.5731C36.6325 19.5731 36.8751 19.6745 37.0568 19.8511C37.2263 20.0158 37.3274 20.2277 37.3413 20.4478C37.3553 20.6697 37.2793 20.8732 37.1278 21.0208L34.9229 23.1653L37.3045 26.2345C37.3814 26.3329 37.4374 26.4453 37.4693 26.565C37.5012 26.6846 37.5083 26.8093 37.4903 26.9317C37.473 27.0542 37.431 27.1721 37.3665 27.2787C37.3021 27.3852 37.2165 27.4783 37.1149 27.5524C36.9475 27.6761 36.743 27.7429 36.5329 27.7424C36.383 27.7431 36.235 27.7096 36.1007 27.6446C35.9665 27.5796 35.8498 27.485 35.76 27.3683L33.4909 24.4437L33.1551 24.7703V26.8238C33.1548 27.0734 33.0528 27.3127 32.8713 27.4893C32.6899 27.6658 32.4439 27.7651 32.1872 27.7654Z" fill="#FFE812"/>
</svg>
