<svg width="23" height="25" viewBox="0 0 23 25" fill="none" xmlns="http://www.w3.org/2000/svg">
<path d="M20.0707 7.65958L16.1749 3.45119C16.0454 3.31124 15.8916 3.20023 15.7223 3.12449C15.553 3.04875 15.3716 3.00977 15.1883 3.00977C15.0051 3.00977 14.8237 3.04875 14.6544 3.12449C14.4851 3.20023 14.3313 3.31124 14.2017 3.45119L3.44996 15.0641C3.31985 15.2035 3.21669 15.3694 3.14649 15.5522C3.07629 15.7351 3.04044 15.9312 3.04102 16.1291V20.3375C3.04102 20.7371 3.188 21.1203 3.44963 21.4029C3.71126 21.6854 4.06611 21.8442 4.43611 21.8442H8.33277C8.51604 21.8448 8.69761 21.8061 8.8669 21.7303C9.0362 21.6545 9.18985 21.5431 9.31892 21.4025L20.0707 9.79061C20.2003 9.6507 20.3031 9.48459 20.3732 9.30176C20.4433 9.11894 20.4794 8.92299 20.4794 8.7251C20.4794 8.5272 20.4433 8.33125 20.3732 8.14843C20.3031 7.96561 20.2003 7.79949 20.0707 7.65958ZM8.33277 20.3375H4.43611V16.1291L12.1091 7.84227L16.0058 12.0507L8.33277 20.3375ZM16.9919 10.9847L13.0953 6.77722L15.1879 4.51718L19.0845 8.72463L16.9919 10.9847Z" fill="#CBCDD2"/>
</svg>
